<?xml version="1.0" encoding="UTF-8" standalone="no"?>
<!DOCTYPE svg PUBLIC "-//W3C//DTD SVG 1.1//EN"
 "http://www.w3.org/Graphics/SVG/1.1/DTD/svg11.dtd">
<!-- Generated by graphviz version 2.43.0 (0)
 -->
<!-- Title: G Pages: 1 -->
<svg width="1985pt" height="2568pt"
 viewBox="0.00 0.00 1985.20 2568.47" xmlns="http://www.w3.org/2000/svg" xmlns:xlink="http://www.w3.org/1999/xlink">
<g id="graph0" class="graph" transform="scale(1 1) rotate(0) translate(21.6 2546.87)">
<title>G</title>
<polygon fill="#111111" stroke="transparent" points="-21.6,21.6 -21.6,-2546.87 1963.6,-2546.87 1963.6,21.6 -21.6,21.6"/>
<!-- ../core/client/index.js -->
<g id="node1" class="node">
<title>../core/client/index.js</title>
<path fill="none" stroke="#c6c5fe" d="M1025.83,-1570.27C1025.83,-1570.27 902.17,-1570.27 902.17,-1570.27 898.33,-1570.27 894.5,-1566.44 894.5,-1562.61 894.5,-1562.61 894.5,-1554.94 894.5,-1554.94 894.5,-1551.11 898.33,-1547.27 902.17,-1547.27 902.17,-1547.27 1025.83,-1547.27 1025.83,-1547.27 1029.67,-1547.27 1033.5,-1551.11 1033.5,-1554.94 1033.5,-1554.94 1033.5,-1562.61 1033.5,-1562.61 1033.5,-1566.44 1029.67,-1570.27 1025.83,-1570.27"/>
<text text-anchor="middle" x="964" y="-1555.07" font-family="Arial" font-size="14.00" fill="#c6c5fe">../core/client/index.js</text>
</g>
<!-- ../core/cloud/aws/index.js -->
<g id="node2" class="node">
<title>../core/cloud/aws/index.js</title>
<path fill="none" stroke="#cfffac" d="M1323.33,-1524.27C1323.33,-1524.27 1171.67,-1524.27 1171.67,-1524.27 1167.83,-1524.27 1164,-1520.44 1164,-1516.61 1164,-1516.61 1164,-1508.94 1164,-1508.94 1164,-1505.11 1167.83,-1501.27 1171.67,-1501.27 1171.67,-1501.27 1323.33,-1501.27 1323.33,-1501.27 1327.17,-1501.27 1331,-1505.11 1331,-1508.94 1331,-1508.94 1331,-1516.61 1331,-1516.61 1331,-1520.44 1327.17,-1524.27 1323.33,-1524.27"/>
<text text-anchor="middle" x="1247.5" y="-1509.07" font-family="Arial" font-size="14.00" fill="#cfffac">../core/cloud/aws/index.js</text>
</g>
<!-- ../core/client/index.js&#45;&gt;../core/cloud/aws/index.js -->
<g id="edge1" class="edge">
<title>../core/client/index.js&#45;&gt;../core/cloud/aws/index.js</title>
<path fill="none" stroke="#757575" d="M1033.5,-1547.58C1073.43,-1541.06 1124,-1532.79 1165.84,-1525.95"/>
<polygon fill="#757575" stroke="#757575" points="1166.42,-1529.41 1175.73,-1524.34 1165.29,-1522.5 1166.42,-1529.41"/>
</g>
<!-- ../core/codes/index.js -->
<g id="node3" class="node">
<title>../core/codes/index.js</title>
<path fill="none" stroke="#cfffac" d="M755.33,-741.27C755.33,-741.27 627.67,-741.27 627.67,-741.27 623.83,-741.27 620,-737.44 620,-733.61 620,-733.61 620,-725.94 620,-725.94 620,-722.11 623.83,-718.27 627.67,-718.27 627.67,-718.27 755.33,-718.27 755.33,-718.27 759.17,-718.27 763,-722.11 763,-725.94 763,-725.94 763,-733.61 763,-733.61 763,-737.44 759.17,-741.27 755.33,-741.27"/>
<text text-anchor="middle" x="691.5" y="-726.07" font-family="Arial" font-size="14.00" fill="#cfffac">../core/codes/index.js</text>
</g>
<!-- ../core/persistence/cache/index.js -->
<g id="node4" class="node">
<title>../core/persistence/cache/index.js</title>
<path fill="none" stroke="#c6c5fe" d="M1639.33,-1372.27C1639.33,-1372.27 1438.67,-1372.27 1438.67,-1372.27 1434.83,-1372.27 1431,-1368.44 1431,-1364.61 1431,-1364.61 1431,-1356.94 1431,-1356.94 1431,-1353.11 1434.83,-1349.27 1438.67,-1349.27 1438.67,-1349.27 1639.33,-1349.27 1639.33,-1349.27 1643.17,-1349.27 1647,-1353.11 1647,-1356.94 1647,-1356.94 1647,-1364.61 1647,-1364.61 1647,-1368.44 1643.17,-1372.27 1639.33,-1372.27"/>
<text text-anchor="middle" x="1539" y="-1357.07" font-family="Arial" font-size="14.00" fill="#c6c5fe">../core/persistence/cache/index.js</text>
</g>
<!-- ../core/persistence/cache/scripts/index.js -->
<g id="node5" class="node">
<title>../core/persistence/cache/scripts/index.js</title>
<path fill="none" stroke="#cfffac" d="M1934.33,-1372.27C1934.33,-1372.27 1690.67,-1372.27 1690.67,-1372.27 1686.83,-1372.27 1683,-1368.44 1683,-1364.61 1683,-1364.61 1683,-1356.94 1683,-1356.94 1683,-1353.11 1686.83,-1349.27 1690.67,-1349.27 1690.67,-1349.27 1934.33,-1349.27 1934.33,-1349.27 1938.17,-1349.27 1942,-1353.11 1942,-1356.94 1942,-1356.94 1942,-1364.61 1942,-1364.61 1942,-1368.44 1938.17,-1372.27 1934.33,-1372.27"/>
<text text-anchor="middle" x="1812.5" y="-1357.07" font-family="Arial" font-size="14.00" fill="#cfffac">../core/persistence/cache/scripts/index.js</text>
</g>
<!-- ../core/persistence/cache/index.js&#45;&gt;../core/persistence/cache/scripts/index.js -->
<g id="edge2" class="edge">
<title>../core/persistence/cache/index.js&#45;&gt;../core/persistence/cache/scripts/index.js</title>
<path fill="none" stroke="#757575" d="M1647.3,-1360.77C1655.72,-1360.77 1664.29,-1360.77 1672.87,-1360.77"/>
<polygon fill="#757575" stroke="#757575" points="1672.95,-1364.27 1682.95,-1360.77 1672.95,-1357.27 1672.95,-1364.27"/>
</g>
<!-- ../core/persistence/db/abstraction/postgresql.js -->
<g id="node6" class="node">
<title>../core/persistence/db/abstraction/postgresql.js</title>
<path fill="none" stroke="#c6c5fe" d="M1387.33,-601.27C1387.33,-601.27 1107.67,-601.27 1107.67,-601.27 1103.83,-601.27 1100,-597.44 1100,-593.61 1100,-593.61 1100,-585.94 1100,-585.94 1100,-582.11 1103.83,-578.27 1107.67,-578.27 1107.67,-578.27 1387.33,-578.27 1387.33,-578.27 1391.17,-578.27 1395,-582.11 1395,-585.94 1395,-585.94 1395,-593.61 1395,-593.61 1395,-597.44 1391.17,-601.27 1387.33,-601.27"/>
<text text-anchor="middle" x="1247.5" y="-586.07" font-family="Arial" font-size="14.00" fill="#c6c5fe">../core/persistence/db/abstraction/postgresql.js</text>
</g>
<!-- ../core/persistence/db/utils.js -->
<g id="node7" class="node">
<title>../core/persistence/db/utils.js</title>
<path fill="none" stroke="#cfffac" d="M1624.83,-581.27C1624.83,-581.27 1453.17,-581.27 1453.17,-581.27 1449.33,-581.27 1445.5,-577.44 1445.5,-573.61 1445.5,-573.61 1445.5,-565.94 1445.5,-565.94 1445.5,-562.11 1449.33,-558.27 1453.17,-558.27 1453.17,-558.27 1624.83,-558.27 1624.83,-558.27 1628.67,-558.27 1632.5,-562.11 1632.5,-565.94 1632.5,-565.94 1632.5,-573.61 1632.5,-573.61 1632.5,-577.44 1628.67,-581.27 1624.83,-581.27"/>
<text text-anchor="middle" x="1539" y="-566.07" font-family="Arial" font-size="14.00" fill="#cfffac">../core/persistence/db/utils.js</text>
</g>
<!-- ../core/persistence/db/abstraction/postgresql.js&#45;&gt;../core/persistence/db/utils.js -->
<g id="edge3" class="edge">
<title>../core/persistence/db/abstraction/postgresql.js&#45;&gt;../core/persistence/db/utils.js</title>
<path fill="none" stroke="#757575" d="M1395.37,-579.63C1408.73,-578.7 1422.07,-577.78 1434.93,-576.89"/>
<polygon fill="#757575" stroke="#757575" points="1435.4,-580.37 1445.13,-576.19 1434.92,-573.39 1435.4,-580.37"/>
</g>
<!-- ../core/persistence/db/index.js -->
<g id="node8" class="node">
<title>../core/persistence/db/index.js</title>
<path fill="none" stroke="#c6c5fe" d="M1053.83,-581.27C1053.83,-581.27 874.17,-581.27 874.17,-581.27 870.33,-581.27 866.5,-577.44 866.5,-573.61 866.5,-573.61 866.5,-565.94 866.5,-565.94 866.5,-562.11 870.33,-558.27 874.17,-558.27 874.17,-558.27 1053.83,-558.27 1053.83,-558.27 1057.67,-558.27 1061.5,-562.11 1061.5,-565.94 1061.5,-565.94 1061.5,-573.61 1061.5,-573.61 1061.5,-577.44 1057.67,-581.27 1053.83,-581.27"/>
<text text-anchor="middle" x="964" y="-566.07" font-family="Arial" font-size="14.00" fill="#c6c5fe">../core/persistence/db/index.js</text>
</g>
<!-- ../core/persistence/db/index.js&#45;&gt;../core/persistence/db/abstraction/postgresql.js -->
<g id="edge4" class="edge">
<title>../core/persistence/db/index.js&#45;&gt;../core/persistence/db/abstraction/postgresql.js</title>
<path fill="none" stroke="#757575" d="M1061.88,-576.66C1070.87,-577.3 1080.13,-577.95 1089.48,-578.62"/>
<polygon fill="#757575" stroke="#757575" points="1089.44,-582.12 1099.67,-579.34 1089.94,-575.14 1089.44,-582.12"/>
</g>
<!-- ../core/persistence/db/index.js&#45;&gt;../core/persistence/db/utils.js -->
<g id="edge5" class="edge">
<title>../core/persistence/db/index.js&#45;&gt;../core/persistence/db/utils.js</title>
<path fill="none" stroke="#757575" d="M1061.6,-568.97C1074.51,-568.89 1087.58,-568.82 1100,-568.77 1231.11,-568.29 1263.89,-568.32 1395,-568.77 1407.96,-568.82 1421.58,-568.89 1435.05,-568.97"/>
<polygon fill="#757575" stroke="#757575" points="1435.29,-572.47 1445.31,-569.03 1435.33,-565.47 1435.29,-572.47"/>
</g>
<!-- ../core/system/stats/index.js -->
<g id="node9" class="node">
<title>../core/system/stats/index.js</title>
<path fill="none" stroke="#c6c5fe" d="M1331.33,-1726.27C1331.33,-1726.27 1163.67,-1726.27 1163.67,-1726.27 1159.83,-1726.27 1156,-1722.44 1156,-1718.61 1156,-1718.61 1156,-1710.94 1156,-1710.94 1156,-1707.11 1159.83,-1703.27 1163.67,-1703.27 1163.67,-1703.27 1331.33,-1703.27 1331.33,-1703.27 1335.17,-1703.27 1339,-1707.11 1339,-1710.94 1339,-1710.94 1339,-1718.61 1339,-1718.61 1339,-1722.44 1335.17,-1726.27 1331.33,-1726.27"/>
<text text-anchor="middle" x="1247.5" y="-1711.07" font-family="Arial" font-size="14.00" fill="#c6c5fe">../core/system/stats/index.js</text>
</g>
<!-- ../core/persistence/db/index.js&#45;&gt;../core/system/stats/index.js -->
<g id="edge6" class="edge">
<title>../core/persistence/db/index.js&#45;&gt;../core/system/stats/index.js</title>
<path fill="none" stroke="#757575" d="M967.79,-581.6C980.87,-637.38 1036.52,-879.93 1064,-1081.77 1077.56,-1181.4 1062.83,-1439.36 1100,-1532.77 1127.51,-1601.91 1190.83,-1665.42 1224.5,-1695.87"/>
<polygon fill="#757575" stroke="#757575" points="1222.59,-1698.85 1232.38,-1702.88 1227.24,-1693.62 1222.59,-1698.85"/>
</g>
<!-- ../core/system/stats/index.js&#45;&gt;../core/persistence/cache/index.js -->
<g id="edge17" class="edge">
<title>../core/system/stats/index.js&#45;&gt;../core/persistence/cache/index.js</title>
<path fill="none" stroke="#757575" d="M1339.16,-1712.72C1359.14,-1708.63 1379.08,-1701.33 1395,-1688.77 1496.51,-1608.74 1527.48,-1442.1 1535.52,-1382.53"/>
<polygon fill="#757575" stroke="#757575" points="1539.01,-1382.76 1536.8,-1372.4 1532.07,-1381.88 1539.01,-1382.76"/>
</g>
<!-- ../core/system/errors/notify.js -->
<g id="node14" class="node">
<title>../core/system/errors/notify.js</title>
<path fill="none" stroke="#c6c5fe" d="M1625.83,-1726.27C1625.83,-1726.27 1452.17,-1726.27 1452.17,-1726.27 1448.33,-1726.27 1444.5,-1722.44 1444.5,-1718.61 1444.5,-1718.61 1444.5,-1710.94 1444.5,-1710.94 1444.5,-1707.11 1448.33,-1703.27 1452.17,-1703.27 1452.17,-1703.27 1625.83,-1703.27 1625.83,-1703.27 1629.67,-1703.27 1633.5,-1707.11 1633.5,-1710.94 1633.5,-1710.94 1633.5,-1718.61 1633.5,-1718.61 1633.5,-1722.44 1629.67,-1726.27 1625.83,-1726.27"/>
<text text-anchor="middle" x="1539" y="-1711.07" font-family="Arial" font-size="14.00" fill="#c6c5fe">../core/system/errors/notify.js</text>
</g>
<!-- ../core/system/stats/index.js&#45;&gt;../core/system/errors/notify.js -->
<g id="edge18" class="edge">
<title>../core/system/stats/index.js&#45;&gt;../core/system/errors/notify.js</title>
<path fill="none" stroke="#757575" d="M1339.31,-1714.77C1369.32,-1714.77 1402.96,-1714.77 1433.89,-1714.77"/>
<polygon fill="#757575" stroke="#757575" points="1434.27,-1718.27 1444.27,-1714.77 1434.27,-1711.27 1434.27,-1718.27"/>
</g>
<!-- ../core/services/firebase/index.js -->
<g id="node10" class="node">
<title>../core/services/firebase/index.js</title>
<path fill="none" stroke="#c6c5fe" d="M788.33,-1570.27C788.33,-1570.27 594.67,-1570.27 594.67,-1570.27 590.83,-1570.27 587,-1566.44 587,-1562.61 587,-1562.61 587,-1554.94 587,-1554.94 587,-1551.11 590.83,-1547.27 594.67,-1547.27 594.67,-1547.27 788.33,-1547.27 788.33,-1547.27 792.17,-1547.27 796,-1551.11 796,-1554.94 796,-1554.94 796,-1562.61 796,-1562.61 796,-1566.44 792.17,-1570.27 788.33,-1570.27"/>
<text text-anchor="middle" x="691.5" y="-1555.07" font-family="Arial" font-size="14.00" fill="#c6c5fe">../core/services/firebase/index.js</text>
</g>
<!-- ../core/services/firebase/index.js&#45;&gt;../core/client/index.js -->
<g id="edge7" class="edge">
<title>../core/services/firebase/index.js&#45;&gt;../core/client/index.js</title>
<path fill="none" stroke="#757575" d="M796.31,-1558.77C825.37,-1558.77 856.49,-1558.77 883.87,-1558.77"/>
<polygon fill="#757575" stroke="#757575" points="884.17,-1562.27 894.17,-1558.77 884.17,-1555.27 884.17,-1562.27"/>
</g>
<!-- ../core/system/session/index.js -->
<g id="node11" class="node">
<title>../core/system/session/index.js</title>
<path fill="none" stroke="#c6c5fe" d="M1056.33,-1114.27C1056.33,-1114.27 871.67,-1114.27 871.67,-1114.27 867.83,-1114.27 864,-1110.44 864,-1106.61 864,-1106.61 864,-1098.94 864,-1098.94 864,-1095.11 867.83,-1091.27 871.67,-1091.27 871.67,-1091.27 1056.33,-1091.27 1056.33,-1091.27 1060.17,-1091.27 1064,-1095.11 1064,-1098.94 1064,-1098.94 1064,-1106.61 1064,-1106.61 1064,-1110.44 1060.17,-1114.27 1056.33,-1114.27"/>
<text text-anchor="middle" x="964" y="-1099.07" font-family="Arial" font-size="14.00" fill="#c6c5fe">../core/system/session/index.js</text>
</g>
<!-- ../core/services/firebase/index.js&#45;&gt;../core/system/session/index.js -->
<g id="edge8" class="edge">
<title>../core/services/firebase/index.js&#45;&gt;../core/system/session/index.js</title>
<path fill="none" stroke="#757575" d="M796.28,-1557.5C808.22,-1553.32 819.24,-1547.02 828,-1537.77 883.15,-1479.58 825,-1248.83 864,-1178.77 878.73,-1152.32 906.88,-1132.1 929.41,-1119.19"/>
<polygon fill="#757575" stroke="#757575" points="931.27,-1122.16 938.35,-1114.27 927.9,-1116.03 931.27,-1122.16"/>
</g>
<!-- ../core/system/session/index.js&#45;&gt;../core/persistence/cache/index.js -->
<g id="edge15" class="edge">
<title>../core/system/session/index.js&#45;&gt;../core/persistence/cache/index.js</title>
<path fill="none" stroke="#757575" d="M1012.35,-1091.27C1096.2,-1073.67 1273.39,-1049.23 1395,-1121.77 1478.39,-1171.52 1518.94,-1290.28 1532.55,-1339.18"/>
<polygon fill="#757575" stroke="#757575" points="1529.22,-1340.26 1535.19,-1349.01 1535.98,-1338.45 1529.22,-1340.26"/>
</g>
<!-- ../core/system/i18n/time.js -->
<g id="node19" class="node">
<title>../core/system/i18n/time.js</title>
<path fill="none" stroke="#cfffac" d="M1326.83,-1154.27C1326.83,-1154.27 1168.17,-1154.27 1168.17,-1154.27 1164.33,-1154.27 1160.5,-1150.44 1160.5,-1146.61 1160.5,-1146.61 1160.5,-1138.94 1160.5,-1138.94 1160.5,-1135.11 1164.33,-1131.27 1168.17,-1131.27 1168.17,-1131.27 1326.83,-1131.27 1326.83,-1131.27 1330.67,-1131.27 1334.5,-1135.11 1334.5,-1138.94 1334.5,-1138.94 1334.5,-1146.61 1334.5,-1146.61 1334.5,-1150.44 1330.67,-1154.27 1326.83,-1154.27"/>
<text text-anchor="middle" x="1247.5" y="-1139.07" font-family="Arial" font-size="14.00" fill="#cfffac">../core/system/i18n/time.js</text>
</g>
<!-- ../core/system/session/index.js&#45;&gt;../core/system/i18n/time.js -->
<g id="edge16" class="edge">
<title>../core/system/session/index.js&#45;&gt;../core/system/i18n/time.js</title>
<path fill="none" stroke="#757575" d="M1046.04,-1114.29C1080.19,-1119.14 1120.1,-1124.81 1155.27,-1129.81"/>
<polygon fill="#757575" stroke="#757575" points="1155.15,-1133.33 1165.54,-1131.27 1156.13,-1126.4 1155.15,-1133.33"/>
</g>
<!-- ../core/services/kafka/index.js -->
<g id="node12" class="node">
<title>../core/services/kafka/index.js</title>
<path fill="none" stroke="#cfffac" d="M780.33,-1529.27C780.33,-1529.27 602.67,-1529.27 602.67,-1529.27 598.83,-1529.27 595,-1525.44 595,-1521.61 595,-1521.61 595,-1513.94 595,-1513.94 595,-1510.11 598.83,-1506.27 602.67,-1506.27 602.67,-1506.27 780.33,-1506.27 780.33,-1506.27 784.17,-1506.27 788,-1510.11 788,-1513.94 788,-1513.94 788,-1521.61 788,-1521.61 788,-1525.44 784.17,-1529.27 780.33,-1529.27"/>
<text text-anchor="middle" x="691.5" y="-1514.07" font-family="Arial" font-size="14.00" fill="#cfffac">../core/services/kafka/index.js</text>
</g>
<!-- ../core/services/slack/index.js -->
<g id="node13" class="node">
<title>../core/services/slack/index.js</title>
<path fill="none" stroke="#cfffac" d="M1900.33,-1746.27C1900.33,-1746.27 1724.67,-1746.27 1724.67,-1746.27 1720.83,-1746.27 1717,-1742.44 1717,-1738.61 1717,-1738.61 1717,-1730.94 1717,-1730.94 1717,-1727.11 1720.83,-1723.27 1724.67,-1723.27 1724.67,-1723.27 1900.33,-1723.27 1900.33,-1723.27 1904.17,-1723.27 1908,-1727.11 1908,-1730.94 1908,-1730.94 1908,-1738.61 1908,-1738.61 1908,-1742.44 1904.17,-1746.27 1900.33,-1746.27"/>
<text text-anchor="middle" x="1812.5" y="-1731.07" font-family="Arial" font-size="14.00" fill="#cfffac">../core/services/slack/index.js</text>
</g>
<!-- ../core/system/errors/notify.js&#45;&gt;../core/services/slack/index.js -->
<g id="edge9" class="edge">
<title>../core/system/errors/notify.js&#45;&gt;../core/services/slack/index.js</title>
<path fill="none" stroke="#757575" d="M1633.82,-1721.69C1657.29,-1723.41 1682.61,-1725.28 1706.58,-1727.05"/>
<polygon fill="#757575" stroke="#757575" points="1706.53,-1730.55 1716.76,-1727.8 1707.04,-1723.57 1706.53,-1730.55"/>
</g>
<!-- ../core/system/i18n/countries.json -->
<g id="node15" class="node">
<title>../core/system/i18n/countries.json</title>
<path fill="none" stroke="#cfffac" d="M507.83,-885.27C507.83,-885.27 305.17,-885.27 305.17,-885.27 301.33,-885.27 297.5,-881.44 297.5,-877.61 297.5,-877.61 297.5,-869.94 297.5,-869.94 297.5,-866.11 301.33,-862.27 305.17,-862.27 305.17,-862.27 507.83,-862.27 507.83,-862.27 511.67,-862.27 515.5,-866.11 515.5,-869.94 515.5,-869.94 515.5,-877.61 515.5,-877.61 515.5,-881.44 511.67,-885.27 507.83,-885.27"/>
<text text-anchor="middle" x="406.5" y="-870.07" font-family="Arial" font-size="14.00" fill="#cfffac">../core/system/i18n/countries.json</text>
</g>
<!-- ../core/system/i18n/index.js -->
<g id="node16" class="node">
<title>../core/system/i18n/index.js</title>
<path fill="none" stroke="#c6c5fe" d="M773.83,-1211.27C773.83,-1211.27 609.17,-1211.27 609.17,-1211.27 605.33,-1211.27 601.5,-1207.44 601.5,-1203.61 601.5,-1203.61 601.5,-1195.94 601.5,-1195.94 601.5,-1192.11 605.33,-1188.27 609.17,-1188.27 609.17,-1188.27 773.83,-1188.27 773.83,-1188.27 777.67,-1188.27 781.5,-1192.11 781.5,-1195.94 781.5,-1195.94 781.5,-1203.61 781.5,-1203.61 781.5,-1207.44 777.67,-1211.27 773.83,-1211.27"/>
<text text-anchor="middle" x="691.5" y="-1196.07" font-family="Arial" font-size="14.00" fill="#c6c5fe">../core/system/i18n/index.js</text>
</g>
<!-- ../core/system/i18n/index.js&#45;&gt;../core/system/session/index.js -->
<g id="edge11" class="edge">
<title>../core/system/i18n/index.js&#45;&gt;../core/system/session/index.js</title>
<path fill="none" stroke="#757575" d="M773.78,-1188.21C791.9,-1184.53 810.82,-1179.79 828,-1173.77 867.57,-1159.92 909.83,-1136.04 936.32,-1119.84"/>
<polygon fill="#757575" stroke="#757575" points="938.35,-1122.7 945,-1114.46 934.66,-1116.75 938.35,-1122.7"/>
</g>
<!-- ../core/system/i18n/labels.json -->
<g id="node17" class="node">
<title>../core/system/i18n/labels.json</title>
<path fill="none" stroke="#cfffac" d="M1055.33,-1211.27C1055.33,-1211.27 872.67,-1211.27 872.67,-1211.27 868.83,-1211.27 865,-1207.44 865,-1203.61 865,-1203.61 865,-1195.94 865,-1195.94 865,-1192.11 868.83,-1188.27 872.67,-1188.27 872.67,-1188.27 1055.33,-1188.27 1055.33,-1188.27 1059.17,-1188.27 1063,-1192.11 1063,-1195.94 1063,-1195.94 1063,-1203.61 1063,-1203.61 1063,-1207.44 1059.17,-1211.27 1055.33,-1211.27"/>
<text text-anchor="middle" x="964" y="-1196.07" font-family="Arial" font-size="14.00" fill="#cfffac">../core/system/i18n/labels.json</text>
</g>
<!-- ../core/system/i18n/index.js&#45;&gt;../core/system/i18n/labels.json -->
<g id="edge10" class="edge">
<title>../core/system/i18n/index.js&#45;&gt;../core/system/i18n/labels.json</title>
<path fill="none" stroke="#757575" d="M781.82,-1199.77C805.12,-1199.77 830.47,-1199.77 854.64,-1199.77"/>
<polygon fill="#757575" stroke="#757575" points="854.91,-1203.27 864.91,-1199.77 854.91,-1196.27 854.91,-1203.27"/>
</g>
<!-- ../core/system/i18n/languages.json -->
<g id="node18" class="node">
<title>../core/system/i18n/languages.json</title>
<path fill="none" stroke="#cfffac" d="M511.33,-844.27C511.33,-844.27 301.67,-844.27 301.67,-844.27 297.83,-844.27 294,-840.44 294,-836.61 294,-836.61 294,-828.94 294,-828.94 294,-825.11 297.83,-821.27 301.67,-821.27 301.67,-821.27 511.33,-821.27 511.33,-821.27 515.17,-821.27 519,-825.11 519,-828.94 519,-828.94 519,-836.61 519,-836.61 519,-840.44 515.17,-844.27 511.33,-844.27"/>
<text text-anchor="middle" x="406.5" y="-829.07" font-family="Arial" font-size="14.00" fill="#cfffac">../core/system/i18n/languages.json</text>
</g>
<!-- ../core/system/i18n/zones.json -->
<g id="node20" class="node">
<title>../core/system/i18n/zones.json</title>
<path fill="none" stroke="#cfffac" d="M498.33,-803.27C498.33,-803.27 314.67,-803.27 314.67,-803.27 310.83,-803.27 307,-799.44 307,-795.61 307,-795.61 307,-787.94 307,-787.94 307,-784.11 310.83,-780.27 314.67,-780.27 314.67,-780.27 498.33,-780.27 498.33,-780.27 502.17,-780.27 506,-784.11 506,-787.94 506,-787.94 506,-795.61 506,-795.61 506,-799.44 502.17,-803.27 498.33,-803.27"/>
<text text-anchor="middle" x="406.5" y="-788.07" font-family="Arial" font-size="14.00" fill="#cfffac">../core/system/i18n/zones.json</text>
</g>
<!-- ../core/system/security/index.js -->
<g id="node21" class="node">
<title>../core/system/security/index.js</title>
<path fill="none" stroke="#c6c5fe" d="M784.33,-661.27C784.33,-661.27 598.67,-661.27 598.67,-661.27 594.83,-661.27 591,-657.44 591,-653.61 591,-653.61 591,-645.94 591,-645.94 591,-642.11 594.83,-638.27 598.67,-638.27 598.67,-638.27 784.33,-638.27 784.33,-638.27 788.17,-638.27 792,-642.11 792,-645.94 792,-645.94 792,-653.61 792,-653.61 792,-657.44 788.17,-661.27 784.33,-661.27"/>
<text text-anchor="middle" x="691.5" y="-646.07" font-family="Arial" font-size="14.00" fill="#c6c5fe">../core/system/security/index.js</text>
</g>
<!-- ../core/system/security/index.js&#45;&gt;../core/persistence/cache/index.js -->
<g id="edge12" class="edge">
<title>../core/system/security/index.js&#45;&gt;../core/persistence/cache/index.js</title>
<path fill="none" stroke="#757575" d="M725.88,-661.35C835.92,-701.03 1191.81,-841.84 1395,-1068.77 1471.46,-1154.17 1516.59,-1287.81 1531.99,-1339.43"/>
<polygon fill="#757575" stroke="#757575" points="1528.67,-1340.53 1534.83,-1349.15 1535.39,-1338.57 1528.67,-1340.53"/>
</g>
<!-- ../core/system/security/index.js&#45;&gt;../core/persistence/db/index.js -->
<g id="edge13" class="edge">
<title>../core/system/security/index.js&#45;&gt;../core/persistence/db/index.js</title>
<path fill="none" stroke="#757575" d="M766.25,-638.27C786.45,-634.4 808.23,-629.57 828,-623.77 863.17,-613.47 901.86,-597.49 928.77,-585.58"/>
<polygon fill="#757575" stroke="#757575" points="930.43,-588.67 938.13,-581.4 927.57,-582.28 930.43,-588.67"/>
</g>
<!-- ../core/system/security/index.js&#45;&gt;../core/system/session/index.js -->
<g id="edge14" class="edge">
<title>../core/system/security/index.js&#45;&gt;../core/system/session/index.js</title>
<path fill="none" stroke="#757575" d="M748.41,-661.3C776.26,-669.85 808.14,-684.41 828,-708.77 877.07,-768.98 840.11,-805.87 864,-879.77 888.88,-956.73 931.72,-1042.95 951.89,-1081.8"/>
<polygon fill="#757575" stroke="#757575" points="948.98,-1083.8 956.72,-1091.04 955.19,-1080.55 948.98,-1083.8"/>
</g>
<!-- ../core/system/websockets/index.js -->
<g id="node22" class="node">
<title>../core/system/websockets/index.js</title>
<path fill="none" stroke="#c6c5fe" d="M796.33,-1373.27C796.33,-1373.27 586.67,-1373.27 586.67,-1373.27 582.83,-1373.27 579,-1369.44 579,-1365.61 579,-1365.61 579,-1357.94 579,-1357.94 579,-1354.11 582.83,-1350.27 586.67,-1350.27 586.67,-1350.27 796.33,-1350.27 796.33,-1350.27 800.17,-1350.27 804,-1354.11 804,-1357.94 804,-1357.94 804,-1365.61 804,-1365.61 804,-1369.44 800.17,-1373.27 796.33,-1373.27"/>
<text text-anchor="middle" x="691.5" y="-1358.07" font-family="Arial" font-size="14.00" fill="#c6c5fe">../core/system/websockets/index.js</text>
</g>
<!-- ../core/system/websockets/index.js&#45;&gt;../core/cloud/aws/index.js -->
<g id="edge19" class="edge">
<title>../core/system/websockets/index.js&#45;&gt;../core/cloud/aws/index.js</title>
<path fill="none" stroke="#757575" d="M720.43,-1373.35C748.32,-1385.27 792.07,-1405.01 828,-1425.77 844.86,-1435.52 845.94,-1443.48 864,-1450.77 915.21,-1471.46 1058.07,-1491.11 1153.96,-1502.55"/>
<polygon fill="#757575" stroke="#757575" points="1153.61,-1506.03 1163.95,-1503.73 1154.43,-1499.08 1153.61,-1506.03"/>
</g>
<!-- ../core/system/websockets/index.js&#45;&gt;../core/persistence/cache/index.js -->
<g id="edge20" class="edge">
<title>../core/system/websockets/index.js&#45;&gt;../core/persistence/cache/index.js</title>
<path fill="none" stroke="#757575" d="M804.34,-1361.64C964.47,-1361.45 1257.68,-1361.11 1420.75,-1360.91"/>
<polygon fill="#757575" stroke="#757575" points="1420.82,-1364.41 1430.82,-1360.9 1420.81,-1357.41 1420.82,-1364.41"/>
</g>
<!-- ../core/system/websockets/index.js&#45;&gt;../core/system/session/index.js -->
<g id="edge21" class="edge">
<title>../core/system/websockets/index.js&#45;&gt;../core/system/session/index.js</title>
<path fill="none" stroke="#757575" d="M804.27,-1356.06C812.97,-1352.27 821.05,-1347.29 828,-1340.77 881.82,-1290.34 824.36,-1240.97 864,-1178.77 880.38,-1153.08 908.63,-1132.68 930.78,-1119.51"/>
<polygon fill="#757575" stroke="#757575" points="932.6,-1122.5 939.54,-1114.49 929.12,-1116.43 932.6,-1122.5"/>
</g>
<!-- builder/buildings/api/index.js -->
<g id="node23" class="node">
<title>builder/buildings/api/index.js</title>
<path fill="none" stroke="#c6c5fe" d="M776.33,-380.27C776.33,-380.27 606.67,-380.27 606.67,-380.27 602.83,-380.27 599,-376.44 599,-372.61 599,-372.61 599,-364.94 599,-364.94 599,-361.11 602.83,-357.27 606.67,-357.27 606.67,-357.27 776.33,-357.27 776.33,-357.27 780.17,-357.27 784,-361.11 784,-364.94 784,-364.94 784,-372.61 784,-372.61 784,-376.44 780.17,-380.27 776.33,-380.27"/>
<text text-anchor="middle" x="691.5" y="-365.07" font-family="Arial" font-size="14.00" fill="#c6c5fe">builder/buildings/api/index.js</text>
</g>
<!-- builder/buildings/api/index.js&#45;&gt;../core/persistence/db/index.js -->
<g id="edge22" class="edge">
<title>builder/buildings/api/index.js&#45;&gt;../core/persistence/db/index.js</title>
<path fill="none" stroke="#757575" d="M784.09,-376.97C799.48,-380.92 814.74,-386.61 828,-394.77 890.13,-433.01 934.44,-510.98 953.13,-548.57"/>
<polygon fill="#757575" stroke="#757575" points="950.2,-550.56 957.71,-558.04 956.5,-547.51 950.2,-550.56"/>
</g>
<!-- builder/buildings/api/types.js -->
<g id="node24" class="node">
<title>builder/buildings/api/types.js</title>
<path fill="none" stroke="#cfffac" d="M213.83,-1336.27C213.83,-1336.27 44.17,-1336.27 44.17,-1336.27 40.33,-1336.27 36.5,-1332.44 36.5,-1328.61 36.5,-1328.61 36.5,-1320.94 36.5,-1320.94 36.5,-1317.11 40.33,-1313.27 44.17,-1313.27 44.17,-1313.27 213.83,-1313.27 213.83,-1313.27 217.67,-1313.27 221.5,-1317.11 221.5,-1320.94 221.5,-1320.94 221.5,-1328.61 221.5,-1328.61 221.5,-1332.44 217.67,-1336.27 213.83,-1336.27"/>
<text text-anchor="middle" x="129" y="-1321.07" font-family="Arial" font-size="14.00" fill="#cfffac">builder/buildings/api/types.js</text>
</g>
<!-- fox/agents/api.js -->
<g id="node25" class="node">
<title>fox/agents/api.js</title>
<path fill="none" stroke="#c6c5fe" d="M740.83,-339.27C740.83,-339.27 642.17,-339.27 642.17,-339.27 638.33,-339.27 634.5,-335.44 634.5,-331.61 634.5,-331.61 634.5,-323.94 634.5,-323.94 634.5,-320.11 638.33,-316.27 642.17,-316.27 642.17,-316.27 740.83,-316.27 740.83,-316.27 744.67,-316.27 748.5,-320.11 748.5,-323.94 748.5,-323.94 748.5,-331.61 748.5,-331.61 748.5,-335.44 744.67,-339.27 740.83,-339.27"/>
<text text-anchor="middle" x="691.5" y="-324.07" font-family="Arial" font-size="14.00" fill="#c6c5fe">fox/agents/api.js</text>
</g>
<!-- fox/agents/api.js&#45;&gt;../core/persistence/db/index.js -->
<g id="edge23" class="edge">
<title>fox/agents/api.js&#45;&gt;../core/persistence/db/index.js</title>
<path fill="none" stroke="#757575" d="M748.79,-325.48C774.78,-326.95 804.91,-332.47 828,-347.77 902.48,-397.16 942.54,-503.07 956.84,-548.43"/>
<polygon fill="#757575" stroke="#757575" points="953.53,-549.57 959.79,-558.12 960.22,-547.53 953.53,-549.57"/>
</g>
<!-- fox/shared/api.js -->
<g id="node26" class="node">
<title>fox/shared/api.js</title>
<path fill="none" stroke="#c6c5fe" d="M741.33,-581.27C741.33,-581.27 641.67,-581.27 641.67,-581.27 637.83,-581.27 634,-577.44 634,-573.61 634,-573.61 634,-565.94 634,-565.94 634,-562.11 637.83,-558.27 641.67,-558.27 641.67,-558.27 741.33,-558.27 741.33,-558.27 745.17,-558.27 749,-562.11 749,-565.94 749,-565.94 749,-573.61 749,-573.61 749,-577.44 745.17,-581.27 741.33,-581.27"/>
<text text-anchor="middle" x="691.5" y="-566.07" font-family="Arial" font-size="14.00" fill="#c6c5fe">fox/shared/api.js</text>
</g>
<!-- fox/shared/api.js&#45;&gt;../core/persistence/db/index.js -->
<g id="edge24" class="edge">
<title>fox/shared/api.js&#45;&gt;../core/persistence/db/index.js</title>
<path fill="none" stroke="#757575" d="M749.21,-569.77C780.22,-569.77 819.66,-569.77 856.2,-569.77"/>
<polygon fill="#757575" stroke="#757575" points="856.42,-573.27 866.42,-569.77 856.42,-566.27 856.42,-573.27"/>
</g>
<!-- health_gorilla/public/api/index.js -->
<g id="node27" class="node">
<title>health_gorilla/public/api/index.js</title>
<path fill="none" stroke="#c6c5fe" d="M502.33,-1726.27C502.33,-1726.27 310.67,-1726.27 310.67,-1726.27 306.83,-1726.27 303,-1722.44 303,-1718.61 303,-1718.61 303,-1710.94 303,-1710.94 303,-1707.11 306.83,-1703.27 310.67,-1703.27 310.67,-1703.27 502.33,-1703.27 502.33,-1703.27 506.17,-1703.27 510,-1707.11 510,-1710.94 510,-1710.94 510,-1718.61 510,-1718.61 510,-1722.44 506.17,-1726.27 502.33,-1726.27"/>
<text text-anchor="middle" x="406.5" y="-1711.07" font-family="Arial" font-size="14.00" fill="#c6c5fe">health_gorilla/public/api/index.js</text>
</g>
<!-- health_gorilla/shared/client/index.js -->
<g id="node28" class="node">
<title>health_gorilla/shared/client/index.js</title>
<path fill="none" stroke="#c6c5fe" d="M797.33,-1726.27C797.33,-1726.27 585.67,-1726.27 585.67,-1726.27 581.83,-1726.27 578,-1722.44 578,-1718.61 578,-1718.61 578,-1710.94 578,-1710.94 578,-1707.11 581.83,-1703.27 585.67,-1703.27 585.67,-1703.27 797.33,-1703.27 797.33,-1703.27 801.17,-1703.27 805,-1707.11 805,-1710.94 805,-1710.94 805,-1718.61 805,-1718.61 805,-1722.44 801.17,-1726.27 797.33,-1726.27"/>
<text text-anchor="middle" x="691.5" y="-1711.07" font-family="Arial" font-size="14.00" fill="#c6c5fe">health_gorilla/shared/client/index.js</text>
</g>
<!-- health_gorilla/public/api/index.js&#45;&gt;health_gorilla/shared/client/index.js -->
<g id="edge25" class="edge">
<title>health_gorilla/public/api/index.js&#45;&gt;health_gorilla/shared/client/index.js</title>
<path fill="none" stroke="#757575" d="M510.07,-1714.77C528.79,-1714.77 548.5,-1714.77 567.74,-1714.77"/>
<polygon fill="#757575" stroke="#757575" points="567.75,-1718.27 577.75,-1714.77 567.75,-1711.27 567.75,-1718.27"/>
</g>
<!-- health_gorilla/shared/client/index.js&#45;&gt;../core/client/index.js -->
<g id="edge26" class="edge">
<title>health_gorilla/shared/client/index.js&#45;&gt;../core/client/index.js</title>
<path fill="none" stroke="#757575" d="M712.83,-1703.05C760.34,-1675.65 878.75,-1607.36 933.89,-1575.56"/>
<polygon fill="#757575" stroke="#757575" points="935.89,-1578.45 942.8,-1570.42 932.39,-1572.39 935.89,-1578.45"/>
</g>
<!-- manifest/module/api.js -->
<g id="node29" class="node">
<title>manifest/module/api.js</title>
<path fill="none" stroke="#c6c5fe" d="M197.33,-1787.27C197.33,-1787.27 60.67,-1787.27 60.67,-1787.27 56.83,-1787.27 53,-1783.44 53,-1779.61 53,-1779.61 53,-1771.94 53,-1771.94 53,-1768.11 56.83,-1764.27 60.67,-1764.27 60.67,-1764.27 197.33,-1764.27 197.33,-1764.27 201.17,-1764.27 205,-1768.11 205,-1771.94 205,-1771.94 205,-1779.61 205,-1779.61 205,-1783.44 201.17,-1787.27 197.33,-1787.27"/>
<text text-anchor="middle" x="129" y="-1772.07" font-family="Arial" font-size="14.00" fill="#c6c5fe">manifest/module/api.js</text>
</g>
<!-- manifest/module/infra.js -->
<g id="node30" class="node">
<title>manifest/module/infra.js</title>
<path fill="none" stroke="#cfffac" d="M479.33,-1808.27C479.33,-1808.27 333.67,-1808.27 333.67,-1808.27 329.83,-1808.27 326,-1804.44 326,-1800.61 326,-1800.61 326,-1792.94 326,-1792.94 326,-1789.11 329.83,-1785.27 333.67,-1785.27 333.67,-1785.27 479.33,-1785.27 479.33,-1785.27 483.17,-1785.27 487,-1789.11 487,-1792.94 487,-1792.94 487,-1800.61 487,-1800.61 487,-1804.44 483.17,-1808.27 479.33,-1808.27"/>
<text text-anchor="middle" x="406.5" y="-1793.07" font-family="Arial" font-size="14.00" fill="#cfffac">manifest/module/infra.js</text>
</g>
<!-- manifest/module/api.js&#45;&gt;manifest/module/infra.js -->
<g id="edge27" class="edge">
<title>manifest/module/api.js&#45;&gt;manifest/module/infra.js</title>
<path fill="none" stroke="#757575" d="M205.28,-1781.51C239.36,-1784.11 279.9,-1787.2 315.57,-1789.92"/>
<polygon fill="#757575" stroke="#757575" points="315.74,-1793.44 325.98,-1790.71 316.27,-1786.46 315.74,-1793.44"/>
</g>
<!-- manifest/module/schemas/in.json -->
<g id="node31" class="node">
<title>manifest/module/schemas/in.json</title>
<path fill="none" stroke="#cfffac" d="M507.83,-1767.27C507.83,-1767.27 305.17,-1767.27 305.17,-1767.27 301.33,-1767.27 297.5,-1763.44 297.5,-1759.61 297.5,-1759.61 297.5,-1751.94 297.5,-1751.94 297.5,-1748.11 301.33,-1744.27 305.17,-1744.27 305.17,-1744.27 507.83,-1744.27 507.83,-1744.27 511.67,-1744.27 515.5,-1748.11 515.5,-1751.94 515.5,-1751.94 515.5,-1759.61 515.5,-1759.61 515.5,-1763.44 511.67,-1767.27 507.83,-1767.27"/>
<text text-anchor="middle" x="406.5" y="-1752.07" font-family="Arial" font-size="14.00" fill="#cfffac">manifest/module/schemas/in.json</text>
</g>
<!-- manifest/module/api.js&#45;&gt;manifest/module/schemas/in.json -->
<g id="edge28" class="edge">
<title>manifest/module/api.js&#45;&gt;manifest/module/schemas/in.json</title>
<path fill="none" stroke="#757575" d="M205.28,-1770.31C230.54,-1768.48 259.35,-1766.38 287.09,-1764.37"/>
<polygon fill="#757575" stroke="#757575" points="287.54,-1767.85 297.26,-1763.63 287.03,-1760.87 287.54,-1767.85"/>
</g>
<!-- manifest/module/schemas/in.js -->
<g id="node32" class="node">
<title>manifest/module/schemas/in.js</title>
<path fill="none" stroke="#cfffac" d="M222.83,-1828.27C222.83,-1828.27 35.17,-1828.27 35.17,-1828.27 31.33,-1828.27 27.5,-1824.44 27.5,-1820.61 27.5,-1820.61 27.5,-1812.94 27.5,-1812.94 27.5,-1809.11 31.33,-1805.27 35.17,-1805.27 35.17,-1805.27 222.83,-1805.27 222.83,-1805.27 226.67,-1805.27 230.5,-1809.11 230.5,-1812.94 230.5,-1812.94 230.5,-1820.61 230.5,-1820.61 230.5,-1824.44 226.67,-1828.27 222.83,-1828.27"/>
<text text-anchor="middle" x="129" y="-1813.07" font-family="Arial" font-size="14.00" fill="#cfffac">manifest/module/schemas/in.js</text>
</g>
<!-- measurements/forms/api.js -->
<g id="node33" class="node">
<title>measurements/forms/api.js</title>
<path fill="none" stroke="#c6c5fe" d="M774.33,-941.27C774.33,-941.27 608.67,-941.27 608.67,-941.27 604.83,-941.27 601,-937.44 601,-933.61 601,-933.61 601,-925.94 601,-925.94 601,-922.11 604.83,-918.27 608.67,-918.27 608.67,-918.27 774.33,-918.27 774.33,-918.27 778.17,-918.27 782,-922.11 782,-925.94 782,-925.94 782,-933.61 782,-933.61 782,-937.44 778.17,-941.27 774.33,-941.27"/>
<text text-anchor="middle" x="691.5" y="-926.07" font-family="Arial" font-size="14.00" fill="#c6c5fe">measurements/forms/api.js</text>
</g>
<!-- measurements/forms/api.js&#45;&gt;../core/persistence/db/index.js -->
<g id="edge29" class="edge">
<title>measurements/forms/api.js&#45;&gt;../core/persistence/db/index.js</title>
<path fill="none" stroke="#757575" d="M782.16,-929.15C798.7,-925.52 814.87,-919.23 828,-908.77 931.54,-826.27 956,-652.54 961.49,-591.52"/>
<polygon fill="#757575" stroke="#757575" points="964.98,-591.74 962.31,-581.49 958.01,-591.17 964.98,-591.74"/>
</g>
<!-- measurements/forms/api.js&#45;&gt;../core/system/session/index.js -->
<g id="edge30" class="edge">
<title>measurements/forms/api.js&#45;&gt;../core/system/session/index.js</title>
<path fill="none" stroke="#757575" d="M782.1,-938.58C798.02,-942.45 813.98,-947.96 828,-955.77 883.91,-986.96 929.44,-1049.7 950.45,-1082.2"/>
<polygon fill="#757575" stroke="#757575" points="947.63,-1084.31 955.94,-1090.89 953.55,-1080.56 947.63,-1084.31"/>
</g>
<!-- measurements/forms/types.js -->
<g id="node34" class="node">
<title>measurements/forms/types.js</title>
<path fill="none" stroke="#cfffac" d="M218.83,-1869.27C218.83,-1869.27 39.17,-1869.27 39.17,-1869.27 35.33,-1869.27 31.5,-1865.44 31.5,-1861.61 31.5,-1861.61 31.5,-1853.94 31.5,-1853.94 31.5,-1850.11 35.33,-1846.27 39.17,-1846.27 39.17,-1846.27 218.83,-1846.27 218.83,-1846.27 222.67,-1846.27 226.5,-1850.11 226.5,-1853.94 226.5,-1853.94 226.5,-1861.61 226.5,-1861.61 226.5,-1865.44 222.67,-1869.27 218.83,-1869.27"/>
<text text-anchor="middle" x="129" y="-1854.07" font-family="Arial" font-size="14.00" fill="#cfffac">measurements/forms/types.js</text>
</g>
<!-- mobile/config.js -->
<g id="node35" class="node">
<title>mobile/config.js</title>
<path fill="none" stroke="#cfffac" d="M1011.33,-180.27C1011.33,-180.27 916.67,-180.27 916.67,-180.27 912.83,-180.27 909,-176.44 909,-172.61 909,-172.61 909,-164.94 909,-164.94 909,-161.11 912.83,-157.27 916.67,-157.27 916.67,-157.27 1011.33,-157.27 1011.33,-157.27 1015.17,-157.27 1019,-161.11 1019,-164.94 1019,-164.94 1019,-172.61 1019,-172.61 1019,-176.44 1015.17,-180.27 1011.33,-180.27"/>
<text text-anchor="middle" x="964" y="-165.07" font-family="Arial" font-size="14.00" fill="#cfffac">mobile/config.js</text>
</g>
<!-- mobile/public/actions.js -->
<g id="node36" class="node">
<title>mobile/public/actions.js</title>
<path fill="none" stroke="#c6c5fe" d="M761.83,-180.27C761.83,-180.27 621.17,-180.27 621.17,-180.27 617.33,-180.27 613.5,-176.44 613.5,-172.61 613.5,-172.61 613.5,-164.94 613.5,-164.94 613.5,-161.11 617.33,-157.27 621.17,-157.27 621.17,-157.27 761.83,-157.27 761.83,-157.27 765.67,-157.27 769.5,-161.11 769.5,-164.94 769.5,-164.94 769.5,-172.61 769.5,-172.61 769.5,-176.44 765.67,-180.27 761.83,-180.27"/>
<text text-anchor="middle" x="691.5" y="-165.07" font-family="Arial" font-size="14.00" fill="#c6c5fe">mobile/public/actions.js</text>
</g>
<!-- mobile/public/actions.js&#45;&gt;../core/persistence/db/index.js -->
<g id="edge31" class="edge">
<title>mobile/public/actions.js&#45;&gt;../core/persistence/db/index.js</title>
<path fill="none" stroke="#757575" d="M769.57,-169.84C790.48,-173.56 811.8,-180.92 828,-194.77 938.88,-289.58 958.69,-482.59 962.23,-547.73"/>
<polygon fill="#757575" stroke="#757575" points="958.75,-548.21 962.71,-558.04 965.74,-547.89 958.75,-548.21"/>
</g>
<!-- mobile/public/actions.js&#45;&gt;mobile/config.js -->
<g id="edge32" class="edge">
<title>mobile/public/actions.js&#45;&gt;mobile/config.js</title>
<path fill="none" stroke="#757575" d="M769.65,-168.77C810.51,-168.77 860.09,-168.77 898.82,-168.77"/>
<polygon fill="#757575" stroke="#757575" points="898.93,-172.27 908.93,-168.77 898.93,-165.27 898.93,-172.27"/>
</g>
<!-- mobile/public/api.js -->
<g id="node37" class="node">
<title>mobile/public/api.js</title>
<path fill="none" stroke="#c6c5fe" d="M749.33,-900.27C749.33,-900.27 633.67,-900.27 633.67,-900.27 629.83,-900.27 626,-896.44 626,-892.61 626,-892.61 626,-884.94 626,-884.94 626,-881.11 629.83,-877.27 633.67,-877.27 633.67,-877.27 749.33,-877.27 749.33,-877.27 753.17,-877.27 757,-881.11 757,-884.94 757,-884.94 757,-892.61 757,-892.61 757,-896.44 753.17,-900.27 749.33,-900.27"/>
<text text-anchor="middle" x="691.5" y="-885.07" font-family="Arial" font-size="14.00" fill="#c6c5fe">mobile/public/api.js</text>
</g>
<!-- mobile/public/api.js&#45;&gt;../core/persistence/db/index.js -->
<g id="edge33" class="edge">
<title>mobile/public/api.js&#45;&gt;../core/persistence/db/index.js</title>
<path fill="none" stroke="#757575" d="M757.19,-891.28C781.47,-889.2 808,-882.97 828,-867.77 921.09,-797.07 951.76,-647.43 960.2,-591.48"/>
<polygon fill="#757575" stroke="#757575" points="963.71,-591.7 961.65,-581.31 956.78,-590.72 963.71,-591.7"/>
</g>
<!-- mobile/public/api.js&#45;&gt;../core/system/session/index.js -->
<g id="edge34" class="edge">
<title>mobile/public/api.js&#45;&gt;../core/system/session/index.js</title>
<path fill="none" stroke="#757575" d="M757.19,-887.81C780.93,-890.06 807.08,-895.81 828,-908.77 895.7,-950.72 938.35,-1040.59 955.01,-1081.59"/>
<polygon fill="#757575" stroke="#757575" points="951.85,-1083.11 958.77,-1091.13 958.36,-1080.54 951.85,-1083.11"/>
</g>
<!-- mobile/public/calcs.js -->
<g id="node38" class="node">
<title>mobile/public/calcs.js</title>
<path fill="none" stroke="#cfffac" d="M193.33,-1910.27C193.33,-1910.27 64.67,-1910.27 64.67,-1910.27 60.83,-1910.27 57,-1906.44 57,-1902.61 57,-1902.61 57,-1894.94 57,-1894.94 57,-1891.11 60.83,-1887.27 64.67,-1887.27 64.67,-1887.27 193.33,-1887.27 193.33,-1887.27 197.17,-1887.27 201,-1891.11 201,-1894.94 201,-1894.94 201,-1902.61 201,-1902.61 201,-1906.44 197.17,-1910.27 193.33,-1910.27"/>
<text text-anchor="middle" x="129" y="-1895.07" font-family="Arial" font-size="14.00" fill="#cfffac">mobile/public/calcs.js</text>
</g>
<!-- mobile/public/domain/index.js -->
<g id="node39" class="node">
<title>mobile/public/domain/index.js</title>
<path fill="none" stroke="#cfffac" d="M218.33,-1951.27C218.33,-1951.27 39.67,-1951.27 39.67,-1951.27 35.83,-1951.27 32,-1947.44 32,-1943.61 32,-1943.61 32,-1935.94 32,-1935.94 32,-1932.11 35.83,-1928.27 39.67,-1928.27 39.67,-1928.27 218.33,-1928.27 218.33,-1928.27 222.17,-1928.27 226,-1932.11 226,-1935.94 226,-1935.94 226,-1943.61 226,-1943.61 226,-1947.44 222.17,-1951.27 218.33,-1951.27"/>
<text text-anchor="middle" x="129" y="-1936.07" font-family="Arial" font-size="14.00" fill="#cfffac">mobile/public/domain/index.js</text>
</g>
<!-- mobile/public/schemas/user_data.js -->
<g id="node40" class="node">
<title>mobile/public/schemas/user_data.js</title>
<path fill="none" stroke="#cfffac" d="M237.33,-1992.27C237.33,-1992.27 20.67,-1992.27 20.67,-1992.27 16.83,-1992.27 13,-1988.44 13,-1984.61 13,-1984.61 13,-1976.94 13,-1976.94 13,-1973.11 16.83,-1969.27 20.67,-1969.27 20.67,-1969.27 237.33,-1969.27 237.33,-1969.27 241.17,-1969.27 245,-1973.11 245,-1976.94 245,-1976.94 245,-1984.61 245,-1984.61 245,-1988.44 241.17,-1992.27 237.33,-1992.27"/>
<text text-anchor="middle" x="129" y="-1977.07" font-family="Arial" font-size="14.00" fill="#cfffac">mobile/public/schemas/user_data.js</text>
</g>
<!-- mobile/public/types.js -->
<g id="node41" class="node">
<title>mobile/public/types.js</title>
<path fill="none" stroke="#cfffac" d="M194.33,-2033.27C194.33,-2033.27 63.67,-2033.27 63.67,-2033.27 59.83,-2033.27 56,-2029.44 56,-2025.61 56,-2025.61 56,-2017.94 56,-2017.94 56,-2014.11 59.83,-2010.27 63.67,-2010.27 63.67,-2010.27 194.33,-2010.27 194.33,-2010.27 198.17,-2010.27 202,-2014.11 202,-2017.94 202,-2017.94 202,-2025.61 202,-2025.61 202,-2029.44 198.17,-2033.27 194.33,-2033.27"/>
<text text-anchor="middle" x="129" y="-2018.07" font-family="Arial" font-size="14.00" fill="#cfffac">mobile/public/types.js</text>
</g>
<!-- mobile/start/api.js -->
<g id="node42" class="node">
<title>mobile/start/api.js</title>
<path fill="none" stroke="#c6c5fe" d="M459.83,-1173.27C459.83,-1173.27 353.17,-1173.27 353.17,-1173.27 349.33,-1173.27 345.5,-1169.44 345.5,-1165.61 345.5,-1165.61 345.5,-1157.94 345.5,-1157.94 345.5,-1154.11 349.33,-1150.27 353.17,-1150.27 353.17,-1150.27 459.83,-1150.27 459.83,-1150.27 463.67,-1150.27 467.5,-1154.11 467.5,-1157.94 467.5,-1157.94 467.5,-1165.61 467.5,-1165.61 467.5,-1169.44 463.67,-1173.27 459.83,-1173.27"/>
<text text-anchor="middle" x="406.5" y="-1158.07" font-family="Arial" font-size="14.00" fill="#c6c5fe">mobile/start/api.js</text>
</g>
<!-- mobile/start/api.js&#45;&gt;../core/codes/index.js -->
<g id="edge35" class="edge">
<title>mobile/start/api.js&#45;&gt;../core/codes/index.js</title>
<path fill="none" stroke="#757575" d="M414.35,-1150.02C433.64,-1116.46 488.92,-1016.89 519,-927.77 543.98,-853.77 499.31,-810.54 555,-755.77 569.68,-741.34 589.77,-733.67 609.99,-729.84"/>
<polygon fill="#757575" stroke="#757575" points="610.58,-733.29 619.9,-728.26 609.47,-726.38 610.58,-733.29"/>
</g>
<!-- mobile/start/api.js&#45;&gt;../core/system/session/index.js -->
<g id="edge37" class="edge">
<title>mobile/start/api.js&#45;&gt;../core/system/session/index.js</title>
<path fill="none" stroke="#757575" d="M467.74,-1161.41C549.7,-1160.15 700.73,-1155.11 828,-1135.77 856.85,-1131.39 888.57,-1123.78 914.01,-1116.98"/>
<polygon fill="#757575" stroke="#757575" points="915.06,-1120.32 923.79,-1114.32 913.22,-1113.57 915.06,-1120.32"/>
</g>
<!-- mobile/start/api.js&#45;&gt;../core/system/i18n/index.js -->
<g id="edge36" class="edge">
<title>mobile/start/api.js&#45;&gt;../core/system/i18n/index.js</title>
<path fill="none" stroke="#757575" d="M467.52,-1169.83C504.47,-1174.79 552.67,-1181.27 594.79,-1186.92"/>
<polygon fill="#757575" stroke="#757575" points="594.42,-1190.4 604.8,-1188.27 595.35,-1183.47 594.42,-1190.4"/>
</g>
<!-- sandbox/bucket/api.js -->
<g id="node43" class="node">
<title>sandbox/bucket/api.js</title>
<path fill="none" stroke="#c6c5fe" d="M471.83,-1610.27C471.83,-1610.27 341.17,-1610.27 341.17,-1610.27 337.33,-1610.27 333.5,-1606.44 333.5,-1602.61 333.5,-1602.61 333.5,-1594.94 333.5,-1594.94 333.5,-1591.11 337.33,-1587.27 341.17,-1587.27 341.17,-1587.27 471.83,-1587.27 471.83,-1587.27 475.67,-1587.27 479.5,-1591.11 479.5,-1594.94 479.5,-1594.94 479.5,-1602.61 479.5,-1602.61 479.5,-1606.44 475.67,-1610.27 471.83,-1610.27"/>
<text text-anchor="middle" x="406.5" y="-1595.07" font-family="Arial" font-size="14.00" fill="#c6c5fe">sandbox/bucket/api.js</text>
</g>
<!-- sandbox/bucket/api.js&#45;&gt;../core/client/index.js -->
<g id="edge38" class="edge">
<title>sandbox/bucket/api.js&#45;&gt;../core/client/index.js</title>
<path fill="none" stroke="#757575" d="M479.83,-1597.52C563.74,-1595.56 706.16,-1590.67 828,-1578.77 846.3,-1576.99 865.92,-1574.45 884.37,-1571.77"/>
<polygon fill="#757575" stroke="#757575" points="885.1,-1575.2 894.48,-1570.27 884.08,-1568.28 885.1,-1575.2"/>
</g>
<!-- sandbox/bucket/api.js&#45;&gt;../core/cloud/aws/index.js -->
<g id="edge39" class="edge">
<title>sandbox/bucket/api.js&#45;&gt;../core/cloud/aws/index.js</title>
<path fill="none" stroke="#757575" d="M479.54,-1605.43C601.58,-1614.76 856,-1625.74 1064,-1578.77 1116.72,-1566.87 1175.03,-1543.97 1211.22,-1528.53"/>
<polygon fill="#757575" stroke="#757575" points="1213.03,-1531.56 1220.82,-1524.38 1210.25,-1525.13 1213.03,-1531.56"/>
</g>
<!-- sandbox/bucket/api.js&#45;&gt;../core/persistence/cache/index.js -->
<g id="edge40" class="edge">
<title>sandbox/bucket/api.js&#45;&gt;../core/persistence/cache/index.js</title>
<path fill="none" stroke="#757575" d="M456.9,-1610.31C609.82,-1643.15 1083.82,-1722.95 1395,-1532.77 1457.96,-1494.29 1506.24,-1418.17 1526.95,-1381.49"/>
<polygon fill="#757575" stroke="#757575" points="1530.05,-1383.1 1531.83,-1372.66 1523.93,-1379.72 1530.05,-1383.1"/>
</g>
<!-- sandbox/bucket/api.js&#45;&gt;../core/persistence/db/index.js -->
<g id="edge41" class="edge">
<title>sandbox/bucket/api.js&#45;&gt;../core/persistence/db/index.js</title>
<path fill="none" stroke="#757575" d="M421.32,-1587.11C446.18,-1565.16 497.83,-1514.94 519,-1459.77 544.24,-1394 507.54,-878.83 555,-826.77 637.66,-736.11 725.41,-853.08 828,-785.77 900.93,-737.93 941.62,-635.59 956.45,-591.13"/>
<polygon fill="#757575" stroke="#757575" points="959.86,-591.97 959.6,-581.38 953.2,-589.82 959.86,-591.97"/>
</g>
<!-- sandbox/bucket/api.js&#45;&gt;../core/services/firebase/index.js -->
<g id="edge42" class="edge">
<title>sandbox/bucket/api.js&#45;&gt;../core/services/firebase/index.js</title>
<path fill="none" stroke="#757575" d="M479.65,-1588.58C515.87,-1583.46 560.16,-1577.2 598.78,-1571.74"/>
<polygon fill="#757575" stroke="#757575" points="599.58,-1575.16 608.99,-1570.3 598.6,-1568.23 599.58,-1575.16"/>
</g>
<!-- sandbox/bucket/api.js&#45;&gt;../core/services/kafka/index.js -->
<g id="edge43" class="edge">
<title>sandbox/bucket/api.js&#45;&gt;../core/services/kafka/index.js</title>
<path fill="none" stroke="#757575" d="M430.38,-1587.24C458.86,-1573.36 509.32,-1550.38 555,-1537.77 564.54,-1535.14 574.56,-1532.83 584.65,-1530.82"/>
<polygon fill="#757575" stroke="#757575" points="585.58,-1534.21 594.76,-1528.9 584.28,-1527.33 585.58,-1534.21"/>
</g>
<!-- sandbox/bucket/api.js&#45;&gt;../core/services/slack/index.js -->
<g id="edge44" class="edge">
<title>sandbox/bucket/api.js&#45;&gt;../core/services/slack/index.js</title>
<path fill="none" stroke="#757575" d="M422.52,-1610.43C444.51,-1627.73 486.39,-1661.65 519,-1693.77 536.27,-1710.79 533.16,-1724.24 555,-1734.77 718.51,-1813.68 781.45,-1754.77 963,-1754.77 963,-1754.77 963,-1754.77 1248.5,-1754.77 1408.47,-1754.77 1593.85,-1746.61 1706.87,-1740.71"/>
<polygon fill="#757575" stroke="#757575" points="1707.1,-1744.21 1716.9,-1740.19 1706.73,-1737.22 1707.1,-1744.21"/>
</g>
<!-- sandbox/examples/api.js -->
<g id="node44" class="node">
<title>sandbox/examples/api.js</title>
<path fill="none" stroke="#c6c5fe" d="M481.33,-1451.27C481.33,-1451.27 331.67,-1451.27 331.67,-1451.27 327.83,-1451.27 324,-1447.44 324,-1443.61 324,-1443.61 324,-1435.94 324,-1435.94 324,-1432.11 327.83,-1428.27 331.67,-1428.27 331.67,-1428.27 481.33,-1428.27 481.33,-1428.27 485.17,-1428.27 489,-1432.11 489,-1435.94 489,-1435.94 489,-1443.61 489,-1443.61 489,-1447.44 485.17,-1451.27 481.33,-1451.27"/>
<text text-anchor="middle" x="406.5" y="-1436.07" font-family="Arial" font-size="14.00" fill="#c6c5fe">sandbox/examples/api.js</text>
</g>
<!-- sandbox/examples/api.js&#45;&gt;../core/client/index.js -->
<g id="edge45" class="edge">
<title>sandbox/examples/api.js&#45;&gt;../core/client/index.js</title>
<path fill="none" stroke="#757575" d="M489.13,-1448.38C602.64,-1460.73 797.7,-1483.43 828,-1496.77 847.06,-1505.17 845.76,-1516.72 864,-1526.77 876.79,-1533.82 891.37,-1539.61 905.34,-1544.23"/>
<polygon fill="#757575" stroke="#757575" points="904.3,-1547.57 914.89,-1547.24 906.41,-1540.9 904.3,-1547.57"/>
</g>
<!-- sandbox/examples/api.js&#45;&gt;../core/cloud/aws/index.js -->
<g id="edge46" class="edge">
<title>sandbox/examples/api.js&#45;&gt;../core/cloud/aws/index.js</title>
<path fill="none" stroke="#757575" d="M478.06,-1428.26C563.98,-1417.32 711.98,-1408.5 828,-1453.77 847.67,-1461.45 844.49,-1476.71 864,-1484.77 957.24,-1523.32 1074.1,-1526.04 1153.96,-1521.85"/>
<polygon fill="#757575" stroke="#757575" points="1154.21,-1525.34 1164,-1521.28 1153.81,-1518.35 1154.21,-1525.34"/>
</g>
<!-- sandbox/examples/api.js&#45;&gt;../core/persistence/cache/index.js -->
<g id="edge47" class="edge">
<title>sandbox/examples/api.js&#45;&gt;../core/persistence/cache/index.js</title>
<path fill="none" stroke="#757575" d="M468.65,-1428.23C495.11,-1423.64 526.49,-1418.76 555,-1415.77 926.72,-1376.81 1022.32,-1404.17 1395,-1375.77 1404.71,-1375.03 1414.78,-1374.17 1424.87,-1373.24"/>
<polygon fill="#757575" stroke="#757575" points="1425.33,-1376.71 1434.96,-1372.29 1424.68,-1369.74 1425.33,-1376.71"/>
</g>
<!-- sandbox/examples/api.js&#45;&gt;../core/persistence/db/index.js -->
<g id="edge48" class="edge">
<title>sandbox/examples/api.js&#45;&gt;../core/persistence/db/index.js</title>
<path fill="none" stroke="#757575" d="M421.24,-1427.97C445.98,-1405.78 497.44,-1355.07 519,-1299.77 559.95,-1194.75 478.9,-876.94 555,-793.77 637.96,-703.1 722.81,-813.33 828,-749.77 892.14,-711.02 935.97,-629.25 953.9,-590.71"/>
<polygon fill="#757575" stroke="#757575" points="957.15,-592.03 958.09,-581.48 950.77,-589.14 957.15,-592.03"/>
</g>
<!-- sandbox/examples/api.js&#45;&gt;../core/services/firebase/index.js -->
<g id="edge49" class="edge">
<title>sandbox/examples/api.js&#45;&gt;../core/services/firebase/index.js</title>
<path fill="none" stroke="#757575" d="M420.61,-1451.41C445.09,-1472.44 500.25,-1516.53 555,-1537.77 562.02,-1540.5 569.38,-1542.87 576.88,-1544.93"/>
<polygon fill="#757575" stroke="#757575" points="576.25,-1548.39 586.8,-1547.48 577.98,-1541.6 576.25,-1548.39"/>
</g>
<!-- sandbox/examples/api.js&#45;&gt;../core/services/kafka/index.js -->
<g id="edge50" class="edge">
<title>sandbox/examples/api.js&#45;&gt;../core/services/kafka/index.js</title>
<path fill="none" stroke="#757575" d="M436.2,-1451.33C465.64,-1462.84 512.93,-1480.39 555,-1491.77 572.56,-1496.53 591.62,-1500.75 609.75,-1504.33"/>
<polygon fill="#757575" stroke="#757575" points="609.23,-1507.8 619.72,-1506.26 610.56,-1500.92 609.23,-1507.8"/>
</g>
<!-- sandbox/examples/api.js&#45;&gt;../core/system/websockets/index.js -->
<g id="edge51" class="edge">
<title>sandbox/examples/api.js&#45;&gt;../core/system/websockets/index.js</title>
<path fill="none" stroke="#757575" d="M436.2,-1428.22C465.64,-1416.71 512.93,-1399.16 555,-1387.77 572.56,-1383.02 591.62,-1378.8 609.75,-1375.22"/>
<polygon fill="#757575" stroke="#757575" points="610.56,-1378.63 619.72,-1373.29 609.23,-1371.75 610.56,-1378.63"/>
</g>
<!-- system/auth/api/groups.js -->
<g id="node45" class="node">
<title>system/auth/api/groups.js</title>
<path fill="none" stroke="#c6c5fe" d="M483.83,-600.27C483.83,-600.27 329.17,-600.27 329.17,-600.27 325.33,-600.27 321.5,-596.44 321.5,-592.61 321.5,-592.61 321.5,-584.94 321.5,-584.94 321.5,-581.11 325.33,-577.27 329.17,-577.27 329.17,-577.27 483.83,-577.27 483.83,-577.27 487.67,-577.27 491.5,-581.11 491.5,-584.94 491.5,-584.94 491.5,-592.61 491.5,-592.61 491.5,-596.44 487.67,-600.27 483.83,-600.27"/>
<text text-anchor="middle" x="406.5" y="-585.07" font-family="Arial" font-size="14.00" fill="#c6c5fe">system/auth/api/groups.js</text>
</g>
<!-- system/auth/api/groups.js&#45;&gt;../core/codes/index.js -->
<g id="edge52" class="edge">
<title>system/auth/api/groups.js&#45;&gt;../core/codes/index.js</title>
<path fill="none" stroke="#757575" d="M491.65,-595.69C501.39,-598.81 510.76,-603.05 519,-608.77 544.85,-626.75 531.48,-648.85 555,-669.77 578.54,-690.72 610.56,-705.36 637.57,-714.93"/>
<polygon fill="#757575" stroke="#757575" points="636.67,-718.32 647.27,-718.23 638.93,-711.69 636.67,-718.32"/>
</g>
<!-- system/auth/api/groups.js&#45;&gt;../core/persistence/db/index.js -->
<g id="edge53" class="edge">
<title>system/auth/api/groups.js&#45;&gt;../core/persistence/db/index.js</title>
<path fill="none" stroke="#757575" d="M491.54,-585.11C501.9,-581.37 511.47,-575.83 519,-567.77 611.3,-469.02 453.92,-355.52 555,-265.77 600.37,-225.5 777.14,-232.71 828,-265.77 928.31,-330.99 954.68,-489.77 961.09,-547.94"/>
<polygon fill="#757575" stroke="#757575" points="957.63,-548.58 962.12,-558.18 964.6,-547.88 957.63,-548.58"/>
</g>
<!-- system/auth/api/groups.js&#45;&gt;../core/system/session/index.js -->
<g id="edge55" class="edge">
<title>system/auth/api/groups.js&#45;&gt;../core/system/session/index.js</title>
<path fill="none" stroke="#757575" d="M491.59,-591.56C501.94,-595.22 511.5,-600.71 519,-608.77 570.9,-664.57 501.63,-895.39 555,-949.77 597.82,-993.41 772.26,-958.67 828,-983.77 878.9,-1006.7 924.51,-1055.59 947.42,-1083.03"/>
<polygon fill="#757575" stroke="#757575" points="945,-1085.6 954.04,-1091.13 950.42,-1081.17 945,-1085.6"/>
</g>
<!-- system/auth/api/groups.js&#45;&gt;../core/system/security/index.js -->
<g id="edge54" class="edge">
<title>system/auth/api/groups.js&#45;&gt;../core/system/security/index.js</title>
<path fill="none" stroke="#757575" d="M484.49,-600.32C496.15,-602.72 507.96,-605.53 519,-608.77 535.63,-613.67 538.4,-618.78 555,-623.77 571.2,-628.65 588.78,-632.81 605.74,-636.29"/>
<polygon fill="#757575" stroke="#757575" points="605.15,-639.74 615.64,-638.25 606.51,-632.87 605.15,-639.74"/>
</g>
<!-- system/shared/tables.js -->
<g id="node46" class="node">
<title>system/shared/tables.js</title>
<path fill="none" stroke="#c6c5fe" d="M762.83,-460.27C762.83,-460.27 620.17,-460.27 620.17,-460.27 616.33,-460.27 612.5,-456.44 612.5,-452.61 612.5,-452.61 612.5,-444.94 612.5,-444.94 612.5,-441.11 616.33,-437.27 620.17,-437.27 620.17,-437.27 762.83,-437.27 762.83,-437.27 766.67,-437.27 770.5,-441.11 770.5,-444.94 770.5,-444.94 770.5,-452.61 770.5,-452.61 770.5,-456.44 766.67,-460.27 762.83,-460.27"/>
<text text-anchor="middle" x="691.5" y="-445.07" font-family="Arial" font-size="14.00" fill="#c6c5fe">system/shared/tables.js</text>
</g>
<!-- system/auth/api/groups.js&#45;&gt;system/shared/tables.js -->
<g id="edge56" class="edge">
<title>system/auth/api/groups.js&#45;&gt;system/shared/tables.js</title>
<path fill="none" stroke="#757575" d="M491.5,-582.7C501.49,-579.26 510.97,-574.45 519,-567.77 553.08,-539.43 520.97,-503.18 555,-474.77 568.37,-463.61 585.09,-456.69 602.16,-452.51"/>
<polygon fill="#757575" stroke="#757575" points="603.18,-455.87 612.23,-450.35 601.72,-449.02 603.18,-455.87"/>
</g>
<!-- system/shared/tables.js&#45;&gt;../core/persistence/db/index.js -->
<g id="edge86" class="edge">
<title>system/shared/tables.js&#45;&gt;../core/persistence/db/index.js</title>
<path fill="none" stroke="#757575" d="M770.85,-457.99C790.02,-461.81 810.14,-467.19 828,-474.77 872.8,-493.79 917.56,-529.37 942.63,-551.18"/>
<polygon fill="#757575" stroke="#757575" points="940.54,-554.01 950.34,-558.01 945.17,-548.76 940.54,-554.01"/>
</g>
<!-- system/auth/api/index.js -->
<g id="node47" class="node">
<title>system/auth/api/index.js</title>
<path fill="none" stroke="#c6c5fe" d="M201.83,-600.27C201.83,-600.27 56.17,-600.27 56.17,-600.27 52.33,-600.27 48.5,-596.44 48.5,-592.61 48.5,-592.61 48.5,-584.94 48.5,-584.94 48.5,-581.11 52.33,-577.27 56.17,-577.27 56.17,-577.27 201.83,-577.27 201.83,-577.27 205.67,-577.27 209.5,-581.11 209.5,-584.94 209.5,-584.94 209.5,-592.61 209.5,-592.61 209.5,-596.44 205.67,-600.27 201.83,-600.27"/>
<text text-anchor="middle" x="129" y="-585.07" font-family="Arial" font-size="14.00" fill="#c6c5fe">system/auth/api/index.js</text>
</g>
<!-- system/auth/api/index.js&#45;&gt;system/auth/api/groups.js -->
<g id="edge57" class="edge">
<title>system/auth/api/index.js&#45;&gt;system/auth/api/groups.js</title>
<path fill="none" stroke="#757575" d="M209.69,-588.77C241.37,-588.77 278.07,-588.77 311.08,-588.77"/>
<polygon fill="#757575" stroke="#757575" points="311.19,-592.27 321.19,-588.77 311.19,-585.27 311.19,-592.27"/>
</g>
<!-- system/auth/db/index.js -->
<g id="node48" class="node">
<title>system/auth/db/index.js</title>
<path fill="none" stroke="#cfffac" d="M200.33,-2074.27C200.33,-2074.27 57.67,-2074.27 57.67,-2074.27 53.83,-2074.27 50,-2070.44 50,-2066.61 50,-2066.61 50,-2058.94 50,-2058.94 50,-2055.11 53.83,-2051.27 57.67,-2051.27 57.67,-2051.27 200.33,-2051.27 200.33,-2051.27 204.17,-2051.27 208,-2055.11 208,-2058.94 208,-2058.94 208,-2066.61 208,-2066.61 208,-2070.44 204.17,-2074.27 200.33,-2074.27"/>
<text text-anchor="middle" x="129" y="-2059.07" font-family="Arial" font-size="14.00" fill="#cfffac">system/auth/db/index.js</text>
</g>
<!-- system/config.js -->
<g id="node49" class="node">
<title>system/config.js</title>
<path fill="none" stroke="#cfffac" d="M1012.83,-99.27C1012.83,-99.27 915.17,-99.27 915.17,-99.27 911.33,-99.27 907.5,-95.44 907.5,-91.61 907.5,-91.61 907.5,-83.94 907.5,-83.94 907.5,-80.11 911.33,-76.27 915.17,-76.27 915.17,-76.27 1012.83,-76.27 1012.83,-76.27 1016.67,-76.27 1020.5,-80.11 1020.5,-83.94 1020.5,-83.94 1020.5,-91.61 1020.5,-91.61 1020.5,-95.44 1016.67,-99.27 1012.83,-99.27"/>
<text text-anchor="middle" x="964" y="-84.07" font-family="Arial" font-size="14.00" fill="#cfffac">system/config.js</text>
</g>
<!-- system/databases/api.js -->
<g id="node50" class="node">
<title>system/databases/api.js</title>
<path fill="none" stroke="#c6c5fe" d="M764.33,-859.27C764.33,-859.27 618.67,-859.27 618.67,-859.27 614.83,-859.27 611,-855.44 611,-851.61 611,-851.61 611,-843.94 611,-843.94 611,-840.11 614.83,-836.27 618.67,-836.27 618.67,-836.27 764.33,-836.27 764.33,-836.27 768.17,-836.27 772,-840.11 772,-843.94 772,-843.94 772,-851.61 772,-851.61 772,-855.44 768.17,-859.27 764.33,-859.27"/>
<text text-anchor="middle" x="691.5" y="-844.07" font-family="Arial" font-size="14.00" fill="#c6c5fe">system/databases/api.js</text>
</g>
<!-- system/databases/api.js&#45;&gt;../core/persistence/db/index.js -->
<g id="edge58" class="edge">
<title>system/databases/api.js&#45;&gt;../core/persistence/db/index.js</title>
<path fill="none" stroke="#757575" d="M772.21,-844.41C791.87,-840.51 811.89,-833.63 828,-821.77 908.47,-762.57 945.86,-640.69 958.16,-591.28"/>
<polygon fill="#757575" stroke="#757575" points="961.61,-591.91 960.53,-581.37 954.8,-590.28 961.61,-591.91"/>
</g>
<!-- system/databases/api.js&#45;&gt;../core/system/session/index.js -->
<g id="edge59" class="edge">
<title>system/databases/api.js&#45;&gt;../core/system/session/index.js</title>
<path fill="none" stroke="#757575" d="M772.16,-847.61C791.71,-850.66 811.69,-856.66 828,-867.77 905.57,-920.61 944.22,-1033.77 957.5,-1081.18"/>
<polygon fill="#757575" stroke="#757575" points="954.17,-1082.26 960.15,-1091 960.93,-1080.44 954.17,-1082.26"/>
</g>
<!-- system/groups/api.js -->
<g id="node51" class="node">
<title>system/groups/api.js</title>
<path fill="none" stroke="#c6c5fe" d="M468.83,-641.27C468.83,-641.27 344.17,-641.27 344.17,-641.27 340.33,-641.27 336.5,-637.44 336.5,-633.61 336.5,-633.61 336.5,-625.94 336.5,-625.94 336.5,-622.11 340.33,-618.27 344.17,-618.27 344.17,-618.27 468.83,-618.27 468.83,-618.27 472.67,-618.27 476.5,-622.11 476.5,-625.94 476.5,-625.94 476.5,-633.61 476.5,-633.61 476.5,-637.44 472.67,-641.27 468.83,-641.27"/>
<text text-anchor="middle" x="406.5" y="-626.07" font-family="Arial" font-size="14.00" fill="#c6c5fe">system/groups/api.js</text>
</g>
<!-- system/groups/api.js&#45;&gt;../core/codes/index.js -->
<g id="edge60" class="edge">
<title>system/groups/api.js&#45;&gt;../core/codes/index.js</title>
<path fill="none" stroke="#757575" d="M476.53,-638.49C490.8,-641.31 505.57,-644.99 519,-649.77 536.24,-655.92 538.62,-661.62 555,-669.77 587.65,-686.03 625.7,-702.69 653.15,-714.31"/>
<polygon fill="#757575" stroke="#757575" points="651.82,-717.55 662.39,-718.2 654.53,-711.1 651.82,-717.55"/>
</g>
<!-- system/groups/api.js&#45;&gt;../core/persistence/db/index.js -->
<g id="edge61" class="edge">
<title>system/groups/api.js&#45;&gt;../core/persistence/db/index.js</title>
<path fill="none" stroke="#757575" d="M476.74,-628.04C492.02,-624.76 507.17,-618.89 519,-608.77 555.22,-577.81 516.05,-535.24 555,-507.77 674.92,-423.21 864.09,-513.63 934.96,-553.18"/>
<polygon fill="#757575" stroke="#757575" points="933.35,-556.29 943.78,-558.18 936.8,-550.2 933.35,-556.29"/>
</g>
<!-- system/groups/api.js&#45;&gt;../core/system/session/index.js -->
<g id="edge63" class="edge">
<title>system/groups/api.js&#45;&gt;../core/system/session/index.js</title>
<path fill="none" stroke="#757575" d="M476.77,-628.58C492.61,-631.69 508,-637.98 519,-649.77 620.81,-758.98 451.07,-876.58 555,-983.77 597.64,-1027.75 770.24,-1001.38 828,-1021.77 870.42,-1036.75 914.1,-1065.95 939.88,-1084.9"/>
<polygon fill="#757575" stroke="#757575" points="938.12,-1087.95 948.22,-1091.13 942.31,-1082.34 938.12,-1087.95"/>
</g>
<!-- system/groups/api.js&#45;&gt;../core/system/security/index.js -->
<g id="edge62" class="edge">
<title>system/groups/api.js&#45;&gt;../core/system/security/index.js</title>
<path fill="none" stroke="#757575" d="M476.73,-634.67C508.01,-636.88 545.72,-639.54 580.71,-642.02"/>
<polygon fill="#757575" stroke="#757575" points="580.76,-645.53 590.98,-642.74 581.25,-638.55 580.76,-645.53"/>
</g>
<!-- system/groups/api.js&#45;&gt;system/shared/tables.js -->
<g id="edge64" class="edge">
<title>system/groups/api.js&#45;&gt;system/shared/tables.js</title>
<path fill="none" stroke="#757575" d="M476.75,-628.83C492.22,-625.55 507.44,-619.48 519,-608.77 564.24,-566.86 509.83,-516.76 555,-474.77 567.98,-462.71 584.77,-455.45 602.09,-451.22"/>
<polygon fill="#757575" stroke="#757575" points="603.26,-454.55 612.32,-449.06 601.82,-447.7 603.26,-454.55"/>
</g>
<!-- system/logging/api.js -->
<g id="node52" class="node">
<title>system/logging/api.js</title>
<path fill="none" stroke="#cfffac" d="M192.83,-2115.27C192.83,-2115.27 65.17,-2115.27 65.17,-2115.27 61.33,-2115.27 57.5,-2111.44 57.5,-2107.61 57.5,-2107.61 57.5,-2099.94 57.5,-2099.94 57.5,-2096.11 61.33,-2092.27 65.17,-2092.27 65.17,-2092.27 192.83,-2092.27 192.83,-2092.27 196.67,-2092.27 200.5,-2096.11 200.5,-2099.94 200.5,-2099.94 200.5,-2107.61 200.5,-2107.61 200.5,-2111.44 196.67,-2115.27 192.83,-2115.27"/>
<text text-anchor="middle" x="129" y="-2100.07" font-family="Arial" font-size="14.00" fill="#cfffac">system/logging/api.js</text>
</g>
<!-- system/permissions/api.js -->
<g id="node53" class="node">
<title>system/permissions/api.js</title>
<path fill="none" stroke="#c6c5fe" d="M484.83,-762.27C484.83,-762.27 328.17,-762.27 328.17,-762.27 324.33,-762.27 320.5,-758.44 320.5,-754.61 320.5,-754.61 320.5,-746.94 320.5,-746.94 320.5,-743.11 324.33,-739.27 328.17,-739.27 328.17,-739.27 484.83,-739.27 484.83,-739.27 488.67,-739.27 492.5,-743.11 492.5,-746.94 492.5,-746.94 492.5,-754.61 492.5,-754.61 492.5,-758.44 488.67,-762.27 484.83,-762.27"/>
<text text-anchor="middle" x="406.5" y="-747.07" font-family="Arial" font-size="14.00" fill="#c6c5fe">system/permissions/api.js</text>
</g>
<!-- system/permissions/api.js&#45;&gt;../core/persistence/db/index.js -->
<g id="edge65" class="edge">
<title>system/permissions/api.js&#45;&gt;../core/persistence/db/index.js</title>
<path fill="none" stroke="#757575" d="M466.24,-739.27C483.43,-735.31 502.13,-730.43 519,-724.77 535.6,-719.21 538.17,-713.61 555,-708.77 672.79,-674.9 714.63,-716.34 828,-669.77 874.54,-650.66 919.66,-611.9 944.14,-588.65"/>
<polygon fill="#757575" stroke="#757575" points="946.87,-590.88 951.62,-581.41 942,-585.85 946.87,-590.88"/>
</g>
<!-- system/permissions/api.js&#45;&gt;../core/system/session/index.js -->
<g id="edge67" class="edge">
<title>system/permissions/api.js&#45;&gt;../core/system/session/index.js</title>
<path fill="none" stroke="#757575" d="M492.56,-754.08C502.51,-757.72 511.69,-763.07 519,-770.77 608.04,-864.72 462.61,-969.12 555,-1059.77 596,-1100.01 747.3,-1106.61 853.64,-1105.99"/>
<polygon fill="#757575" stroke="#757575" points="853.81,-1109.49 863.78,-1105.91 853.75,-1102.49 853.81,-1109.49"/>
</g>
<!-- system/permissions/api.js&#45;&gt;../core/system/security/index.js -->
<g id="edge66" class="edge">
<title>system/permissions/api.js&#45;&gt;../core/system/security/index.js</title>
<path fill="none" stroke="#757575" d="M488.31,-739.19C499.15,-735.6 509.71,-730.9 519,-724.77 541.56,-709.89 532.15,-690.21 555,-675.77 563.12,-670.65 572.01,-666.49 581.25,-663.12"/>
<polygon fill="#757575" stroke="#757575" points="582.58,-666.36 590.97,-659.89 580.38,-659.72 582.58,-666.36"/>
</g>
<!-- system/public/api/edfparser.js -->
<g id="node54" class="node">
<title>system/public/api/edfparser.js</title>
<path fill="none" stroke="#cfffac" d="M780.83,-59.27C780.83,-59.27 602.17,-59.27 602.17,-59.27 598.33,-59.27 594.5,-55.44 594.5,-51.61 594.5,-51.61 594.5,-43.94 594.5,-43.94 594.5,-40.11 598.33,-36.27 602.17,-36.27 602.17,-36.27 780.83,-36.27 780.83,-36.27 784.67,-36.27 788.5,-40.11 788.5,-43.94 788.5,-43.94 788.5,-51.61 788.5,-51.61 788.5,-55.44 784.67,-59.27 780.83,-59.27"/>
<text text-anchor="middle" x="691.5" y="-44.07" font-family="Arial" font-size="14.00" fill="#cfffac">system/public/api/edfparser.js</text>
</g>
<!-- system/public/api/index.js -->
<g id="node55" class="node">
<title>system/public/api/index.js</title>
<path fill="none" stroke="#c6c5fe" d="M206.33,-662.27C206.33,-662.27 51.67,-662.27 51.67,-662.27 47.83,-662.27 44,-658.44 44,-654.61 44,-654.61 44,-646.94 44,-646.94 44,-643.11 47.83,-639.27 51.67,-639.27 51.67,-639.27 206.33,-639.27 206.33,-639.27 210.17,-639.27 214,-643.11 214,-646.94 214,-646.94 214,-654.61 214,-654.61 214,-658.44 210.17,-662.27 206.33,-662.27"/>
<text text-anchor="middle" x="129" y="-647.07" font-family="Arial" font-size="14.00" fill="#c6c5fe">system/public/api/index.js</text>
</g>
<!-- system/public/api/login.js -->
<g id="node56" class="node">
<title>system/public/api/login.js</title>
<path fill="none" stroke="#c6c5fe" d="M482.33,-682.27C482.33,-682.27 330.67,-682.27 330.67,-682.27 326.83,-682.27 323,-678.44 323,-674.61 323,-674.61 323,-666.94 323,-666.94 323,-663.11 326.83,-659.27 330.67,-659.27 330.67,-659.27 482.33,-659.27 482.33,-659.27 486.17,-659.27 490,-663.11 490,-666.94 490,-666.94 490,-674.61 490,-674.61 490,-678.44 486.17,-682.27 482.33,-682.27"/>
<text text-anchor="middle" x="406.5" y="-667.07" font-family="Arial" font-size="14.00" fill="#c6c5fe">system/public/api/login.js</text>
</g>
<!-- system/public/api/index.js&#45;&gt;system/public/api/login.js -->
<g id="edge68" class="edge">
<title>system/public/api/index.js&#45;&gt;system/public/api/login.js</title>
<path fill="none" stroke="#757575" d="M214.16,-656.88C245.28,-659.14 280.74,-661.72 312.6,-664.03"/>
<polygon fill="#757575" stroke="#757575" points="312.58,-667.54 322.81,-664.77 313.09,-660.56 312.58,-667.54"/>
</g>
<!-- system/public/api/others.js -->
<g id="node57" class="node">
<title>system/public/api/others.js</title>
<path fill="none" stroke="#c6c5fe" d="M486.83,-300.27C486.83,-300.27 326.17,-300.27 326.17,-300.27 322.33,-300.27 318.5,-296.44 318.5,-292.61 318.5,-292.61 318.5,-284.94 318.5,-284.94 318.5,-281.11 322.33,-277.27 326.17,-277.27 326.17,-277.27 486.83,-277.27 486.83,-277.27 490.67,-277.27 494.5,-281.11 494.5,-284.94 494.5,-284.94 494.5,-292.61 494.5,-292.61 494.5,-296.44 490.67,-300.27 486.83,-300.27"/>
<text text-anchor="middle" x="406.5" y="-285.07" font-family="Arial" font-size="14.00" fill="#c6c5fe">system/public/api/others.js</text>
</g>
<!-- system/public/api/index.js&#45;&gt;system/public/api/others.js -->
<g id="edge69" class="edge">
<title>system/public/api/index.js&#45;&gt;system/public/api/others.js</title>
<path fill="none" stroke="#757575" d="M209.35,-639.21C227.65,-632.97 245.42,-623.4 258,-608.77 320.88,-535.64 248.72,-479.93 294,-394.77 314.16,-356.85 353,-324.74 379.08,-306.11"/>
<polygon fill="#757575" stroke="#757575" points="381.19,-308.91 387.4,-300.32 377.19,-303.16 381.19,-308.91"/>
</g>
<!-- system/public/api/login.js&#45;&gt;../core/codes/index.js -->
<g id="edge70" class="edge">
<title>system/public/api/login.js&#45;&gt;../core/codes/index.js</title>
<path fill="none" stroke="#757575" d="M462.74,-682.29C509.24,-691.98 575.84,-705.87 625.02,-716.12"/>
<polygon fill="#757575" stroke="#757575" points="624.42,-719.57 634.92,-718.19 625.84,-712.72 624.42,-719.57"/>
</g>
<!-- system/public/api/login.js&#45;&gt;../core/system/session/index.js -->
<g id="edge73" class="edge">
<title>system/public/api/login.js&#45;&gt;../core/system/session/index.js</title>
<path fill="none" stroke="#757575" d="M449.65,-682.34C473.91,-691.25 502.72,-706.15 519,-729.77 593.2,-837.44 463.26,-928.59 555,-1021.77 597.97,-1065.42 768.27,-1046.21 828,-1059.77 860.22,-1067.09 895.8,-1078.57 922.34,-1087.83"/>
<polygon fill="#757575" stroke="#757575" points="921.45,-1091.23 932.05,-1091.25 923.78,-1084.62 921.45,-1091.23"/>
</g>
<!-- system/public/api/login.js&#45;&gt;../core/system/i18n/index.js -->
<g id="edge71" class="edge">
<title>system/public/api/login.js&#45;&gt;../core/system/i18n/index.js</title>
<path fill="none" stroke="#757575" d="M450.04,-682.36C474.29,-691.26 502.95,-706.13 519,-729.77 601.86,-851.84 492.31,-926.22 555,-1059.77 579.96,-1112.95 633.42,-1158.41 665.22,-1182.15"/>
<polygon fill="#757575" stroke="#757575" points="663.43,-1185.18 673.57,-1188.26 667.56,-1179.53 663.43,-1185.18"/>
</g>
<!-- system/public/api/login.js&#45;&gt;../core/system/security/index.js -->
<g id="edge72" class="edge">
<title>system/public/api/login.js&#45;&gt;../core/system/security/index.js</title>
<path fill="none" stroke="#757575" d="M490.12,-664.64C518.48,-662.54 550.68,-660.15 580.85,-657.91"/>
<polygon fill="#757575" stroke="#757575" points="581.28,-661.39 590.99,-657.16 580.76,-654.41 581.28,-661.39"/>
</g>
<!-- system/public/api/login.js&#45;&gt;../core/system/websockets/index.js -->
<g id="edge74" class="edge">
<title>system/public/api/login.js&#45;&gt;../core/system/websockets/index.js</title>
<path fill="none" stroke="#757575" d="M451.03,-682.28C475.31,-691.1 503.66,-705.92 519,-729.77 592.57,-844.18 463.49,-1240.14 555,-1340.77 559.41,-1345.63 564.45,-1349.68 569.92,-1353.05"/>
<polygon fill="#757575" stroke="#757575" points="568.37,-1356.19 578.85,-1357.79 571.66,-1350.01 568.37,-1356.19"/>
</g>
<!-- system/public/api/login.js&#45;&gt;system/config.js -->
<g id="edge75" class="edge">
<title>system/public/api/login.js&#45;&gt;system/config.js</title>
<path fill="none" stroke="#757575" d="M490.26,-668.05C501.21,-664.27 511.29,-658.47 519,-649.77 599.23,-559.29 468.65,-191.44 555,-106.77 601.86,-60.83 794.23,-71.39 897.21,-80.76"/>
<polygon fill="#757575" stroke="#757575" points="896.91,-84.25 907.19,-81.69 897.56,-77.28 896.91,-84.25"/>
</g>
<!-- system/public/api/schemas/login.input.json -->
<g id="node58" class="node">
<title>system/public/api/schemas/login.input.json</title>
<path fill="none" stroke="#cfffac" d="M820.33,-298.27C820.33,-298.27 562.67,-298.27 562.67,-298.27 558.83,-298.27 555,-294.44 555,-290.61 555,-290.61 555,-282.94 555,-282.94 555,-279.11 558.83,-275.27 562.67,-275.27 562.67,-275.27 820.33,-275.27 820.33,-275.27 824.17,-275.27 828,-279.11 828,-282.94 828,-282.94 828,-290.61 828,-290.61 828,-294.44 824.17,-298.27 820.33,-298.27"/>
<text text-anchor="middle" x="691.5" y="-283.07" font-family="Arial" font-size="14.00" fill="#cfffac">system/public/api/schemas/login.input.json</text>
</g>
<!-- system/public/api/login.js&#45;&gt;system/public/api/schemas/login.input.json -->
<g id="edge76" class="edge">
<title>system/public/api/login.js&#45;&gt;system/public/api/schemas/login.input.json</title>
<path fill="none" stroke="#757575" d="M490.25,-667.69C501.13,-663.95 511.19,-658.25 519,-649.77 622.88,-537.06 448.91,-417.41 555,-306.77 555.67,-306.08 556.34,-305.4 557.04,-304.74"/>
<polygon fill="#757575" stroke="#757575" points="559.39,-307.34 564.88,-298.28 554.94,-301.93 559.39,-307.34"/>
</g>
<!-- system/public/db/index.js -->
<g id="node59" class="node">
<title>system/public/db/index.js</title>
<path fill="none" stroke="#c6c5fe" d="M767.33,-139.27C767.33,-139.27 615.67,-139.27 615.67,-139.27 611.83,-139.27 608,-135.44 608,-131.61 608,-131.61 608,-123.94 608,-123.94 608,-120.11 611.83,-116.27 615.67,-116.27 615.67,-116.27 767.33,-116.27 767.33,-116.27 771.17,-116.27 775,-120.11 775,-123.94 775,-123.94 775,-131.61 775,-131.61 775,-135.44 771.17,-139.27 767.33,-139.27"/>
<text text-anchor="middle" x="691.5" y="-124.07" font-family="Arial" font-size="14.00" fill="#c6c5fe">system/public/db/index.js</text>
</g>
<!-- system/public/api/login.js&#45;&gt;system/public/db/index.js -->
<g id="edge77" class="edge">
<title>system/public/api/login.js&#45;&gt;system/public/db/index.js</title>
<path fill="none" stroke="#757575" d="M490.22,-668.02C501.17,-664.24 511.27,-658.45 519,-649.77 593.43,-566.29 478.93,-229.77 555,-147.77 566.32,-135.58 581.57,-128.55 597.77,-124.78"/>
<polygon fill="#757575" stroke="#757575" points="598.78,-128.15 607.94,-122.84 597.46,-121.28 598.78,-128.15"/>
</g>
<!-- system/public/api/others.js&#45;&gt;../core/persistence/db/index.js -->
<g id="edge78" class="edge">
<title>system/public/api/others.js&#45;&gt;../core/persistence/db/index.js</title>
<path fill="none" stroke="#757575" d="M428.57,-277.05C494.21,-242.24 698.37,-147.26 828,-234.77 936.86,-308.27 957.96,-485.77 962.03,-547.87"/>
<polygon fill="#757575" stroke="#757575" points="958.55,-548.29 962.61,-558.08 965.54,-547.89 958.55,-548.29"/>
</g>
<!-- system/public/api/others.js&#45;&gt;../core/system/security/index.js -->
<g id="edge79" class="edge">
<title>system/public/api/others.js&#45;&gt;../core/system/security/index.js</title>
<path fill="none" stroke="#757575" d="M412.95,-300.45C438.2,-354.51 543.2,-578.43 555,-589.77 577.21,-611.14 608.3,-625.65 635.1,-635.04"/>
<polygon fill="#757575" stroke="#757575" points="634.16,-638.41 644.76,-638.27 636.39,-631.78 634.16,-638.41"/>
</g>
<!-- system/public/api/others.js&#45;&gt;system/public/api/edfparser.js -->
<g id="edge80" class="edge">
<title>system/public/api/others.js&#45;&gt;system/public/api/edfparser.js</title>
<path fill="none" stroke="#757575" d="M411.76,-277.08C425.79,-240.35 474.33,-126.58 555,-73.77 564.05,-67.85 574.13,-63.2 584.59,-59.57"/>
<polygon fill="#757575" stroke="#757575" points="585.8,-62.86 594.28,-56.52 583.69,-56.19 585.8,-62.86"/>
</g>
<!-- system/public/db/index.js&#45;&gt;../core/persistence/db/index.js -->
<g id="edge81" class="edge">
<title>system/public/db/index.js&#45;&gt;../core/persistence/db/index.js</title>
<path fill="none" stroke="#757575" d="M775.3,-125.56C794.36,-128.73 813.32,-135.31 828,-147.77 891.86,-201.98 944.77,-469.38 959.14,-548"/>
<polygon fill="#757575" stroke="#757575" points="955.76,-548.96 960.98,-558.18 962.65,-547.72 955.76,-548.96"/>
</g>
<!-- system/public/db/index.js&#45;&gt;system/config.js -->
<g id="edge82" class="edge">
<title>system/public/db/index.js&#45;&gt;system/config.js</title>
<path fill="none" stroke="#757575" d="M770.38,-116.26C810.49,-110.33 858.88,-103.17 897.12,-97.52"/>
<polygon fill="#757575" stroke="#757575" points="897.73,-100.96 907.11,-96.04 896.71,-94.04 897.73,-100.96"/>
</g>
<!-- system/public/api/login.types.js -->
<g id="node60" class="node">
<title>system/public/api/login.types.js</title>
<path fill="none" stroke="#cfffac" d="M222.83,-2156.27C222.83,-2156.27 35.17,-2156.27 35.17,-2156.27 31.33,-2156.27 27.5,-2152.44 27.5,-2148.61 27.5,-2148.61 27.5,-2140.94 27.5,-2140.94 27.5,-2137.11 31.33,-2133.27 35.17,-2133.27 35.17,-2133.27 222.83,-2133.27 222.83,-2133.27 226.67,-2133.27 230.5,-2137.11 230.5,-2140.94 230.5,-2140.94 230.5,-2148.61 230.5,-2148.61 230.5,-2152.44 226.67,-2156.27 222.83,-2156.27"/>
<text text-anchor="middle" x="129" y="-2141.07" font-family="Arial" font-size="14.00" fill="#cfffac">system/public/api/login.types.js</text>
</g>
<!-- system/public/api/schemas/login.input.js -->
<g id="node61" class="node">
<title>system/public/api/schemas/login.input.js</title>
<path fill="none" stroke="#cfffac" d="M250.33,-2197.27C250.33,-2197.27 7.67,-2197.27 7.67,-2197.27 3.83,-2197.27 0,-2193.44 0,-2189.61 0,-2189.61 0,-2181.94 0,-2181.94 0,-2178.11 3.83,-2174.27 7.67,-2174.27 7.67,-2174.27 250.33,-2174.27 250.33,-2174.27 254.17,-2174.27 258,-2178.11 258,-2181.94 258,-2181.94 258,-2189.61 258,-2189.61 258,-2193.44 254.17,-2197.27 250.33,-2197.27"/>
<text text-anchor="middle" x="129" y="-2182.07" font-family="Arial" font-size="14.00" fill="#cfffac">system/public/api/schemas/login.input.js</text>
</g>
<!-- system/public/mail/template.js -->
<g id="node62" class="node">
<title>system/public/mail/template.js</title>
<path fill="none" stroke="#cfffac" d="M220.33,-2238.27C220.33,-2238.27 37.67,-2238.27 37.67,-2238.27 33.83,-2238.27 30,-2234.44 30,-2230.61 30,-2230.61 30,-2222.94 30,-2222.94 30,-2219.11 33.83,-2215.27 37.67,-2215.27 37.67,-2215.27 220.33,-2215.27 220.33,-2215.27 224.17,-2215.27 228,-2219.11 228,-2222.94 228,-2222.94 228,-2230.61 228,-2230.61 228,-2234.44 224.17,-2238.27 220.33,-2238.27"/>
<text text-anchor="middle" x="129" y="-2223.07" font-family="Arial" font-size="14.00" fill="#cfffac">system/public/mail/template.js</text>
</g>
<!-- system/sessions/api/index.js -->
<g id="node63" class="node">
<title>system/sessions/api/index.js</title>
<path fill="none" stroke="#c6c5fe" d="M777.83,-1332.27C777.83,-1332.27 605.17,-1332.27 605.17,-1332.27 601.33,-1332.27 597.5,-1328.44 597.5,-1324.61 597.5,-1324.61 597.5,-1316.94 597.5,-1316.94 597.5,-1313.11 601.33,-1309.27 605.17,-1309.27 605.17,-1309.27 777.83,-1309.27 777.83,-1309.27 781.67,-1309.27 785.5,-1313.11 785.5,-1316.94 785.5,-1316.94 785.5,-1324.61 785.5,-1324.61 785.5,-1328.44 781.67,-1332.27 777.83,-1332.27"/>
<text text-anchor="middle" x="691.5" y="-1317.07" font-family="Arial" font-size="14.00" fill="#c6c5fe">system/sessions/api/index.js</text>
</g>
<!-- system/sessions/api/index.js&#45;&gt;../core/persistence/cache/index.js -->
<g id="edge83" class="edge">
<title>system/sessions/api/index.js&#45;&gt;../core/persistence/cache/index.js</title>
<path fill="none" stroke="#757575" d="M785.81,-1325.19C940.79,-1332.52 1250.99,-1347.2 1420.6,-1355.22"/>
<polygon fill="#757575" stroke="#757575" points="1420.66,-1358.73 1430.81,-1355.7 1420.99,-1351.73 1420.66,-1358.73"/>
</g>
<!-- system/sessions/api/index.js&#45;&gt;../core/system/session/index.js -->
<g id="edge84" class="edge">
<title>system/sessions/api/index.js&#45;&gt;../core/system/session/index.js</title>
<path fill="none" stroke="#757575" d="M785.72,-1320.4C801.2,-1316.6 816.07,-1310.19 828,-1299.77 870.27,-1262.88 832.2,-1225 864,-1178.77 881.49,-1153.36 910.15,-1132.7 932.14,-1119.38"/>
<polygon fill="#757575" stroke="#757575" points="933.95,-1122.37 940.81,-1114.29 930.41,-1116.33 933.95,-1122.37"/>
</g>
<!-- system/shared/datatables.js -->
<g id="node64" class="node">
<title>system/shared/datatables.js</title>
<path fill="none" stroke="#cfffac" d="M213.83,-2279.27C213.83,-2279.27 44.17,-2279.27 44.17,-2279.27 40.33,-2279.27 36.5,-2275.44 36.5,-2271.61 36.5,-2271.61 36.5,-2263.94 36.5,-2263.94 36.5,-2260.11 40.33,-2256.27 44.17,-2256.27 44.17,-2256.27 213.83,-2256.27 213.83,-2256.27 217.67,-2256.27 221.5,-2260.11 221.5,-2263.94 221.5,-2263.94 221.5,-2271.61 221.5,-2271.61 221.5,-2275.44 217.67,-2279.27 213.83,-2279.27"/>
<text text-anchor="middle" x="129" y="-2264.07" font-family="Arial" font-size="14.00" fill="#cfffac">system/shared/datatables.js</text>
</g>
<!-- system/shared/domain/index.js -->
<g id="node65" class="node">
<title>system/shared/domain/index.js</title>
<path fill="none" stroke="#cfffac" d="M222.83,-2320.27C222.83,-2320.27 35.17,-2320.27 35.17,-2320.27 31.33,-2320.27 27.5,-2316.44 27.5,-2312.61 27.5,-2312.61 27.5,-2304.94 27.5,-2304.94 27.5,-2301.11 31.33,-2297.27 35.17,-2297.27 35.17,-2297.27 222.83,-2297.27 222.83,-2297.27 226.67,-2297.27 230.5,-2301.11 230.5,-2304.94 230.5,-2304.94 230.5,-2312.61 230.5,-2312.61 230.5,-2316.44 226.67,-2320.27 222.83,-2320.27"/>
<text text-anchor="middle" x="129" y="-2305.07" font-family="Arial" font-size="14.00" fill="#cfffac">system/shared/domain/index.js</text>
</g>
<!-- system/shared/index.js -->
<g id="node66" class="node">
<title>system/shared/index.js</title>
<path fill="none" stroke="#cfffac" d="M198.83,-2361.27C198.83,-2361.27 59.17,-2361.27 59.17,-2361.27 55.33,-2361.27 51.5,-2357.44 51.5,-2353.61 51.5,-2353.61 51.5,-2345.94 51.5,-2345.94 51.5,-2342.11 55.33,-2338.27 59.17,-2338.27 59.17,-2338.27 198.83,-2338.27 198.83,-2338.27 202.67,-2338.27 206.5,-2342.11 206.5,-2345.94 206.5,-2345.94 206.5,-2353.61 206.5,-2353.61 206.5,-2357.44 202.67,-2361.27 198.83,-2361.27"/>
<text text-anchor="middle" x="129" y="-2346.07" font-family="Arial" font-size="14.00" fill="#cfffac">system/shared/index.js</text>
</g>
<!-- system/shared/infra/index.js -->
<g id="node67" class="node">
<title>system/shared/infra/index.js</title>
<path fill="none" stroke="#cfffac" d="M213.83,-2402.27C213.83,-2402.27 44.17,-2402.27 44.17,-2402.27 40.33,-2402.27 36.5,-2398.44 36.5,-2394.61 36.5,-2394.61 36.5,-2386.94 36.5,-2386.94 36.5,-2383.11 40.33,-2379.27 44.17,-2379.27 44.17,-2379.27 213.83,-2379.27 213.83,-2379.27 217.67,-2379.27 221.5,-2383.11 221.5,-2386.94 221.5,-2386.94 221.5,-2394.61 221.5,-2394.61 221.5,-2398.44 217.67,-2402.27 213.83,-2402.27"/>
<text text-anchor="middle" x="129" y="-2387.07" font-family="Arial" font-size="14.00" fill="#cfffac">system/shared/infra/index.js</text>
</g>
<!-- system/shared/select.js -->
<g id="node68" class="node">
<title>system/shared/select.js</title>
<path fill="none" stroke="#c6c5fe" d="M762.83,-540.27C762.83,-540.27 620.17,-540.27 620.17,-540.27 616.33,-540.27 612.5,-536.44 612.5,-532.61 612.5,-532.61 612.5,-524.94 612.5,-524.94 612.5,-521.11 616.33,-517.27 620.17,-517.27 620.17,-517.27 762.83,-517.27 762.83,-517.27 766.67,-517.27 770.5,-521.11 770.5,-524.94 770.5,-524.94 770.5,-532.61 770.5,-532.61 770.5,-536.44 766.67,-540.27 762.83,-540.27"/>
<text text-anchor="middle" x="691.5" y="-525.07" font-family="Arial" font-size="14.00" fill="#c6c5fe">system/shared/select.js</text>
</g>
<!-- system/shared/select.js&#45;&gt;../core/persistence/db/index.js -->
<g id="edge85" class="edge">
<title>system/shared/select.js&#45;&gt;../core/persistence/db/index.js</title>
<path fill="none" stroke="#757575" d="M770.62,-540.2C789.41,-542.98 809.43,-545.96 828,-548.77 844.66,-551.3 862.48,-554.04 879.52,-556.68"/>
<polygon fill="#757575" stroke="#757575" points="879.03,-560.15 889.45,-558.23 880.1,-553.23 879.03,-560.15"/>
</g>
<!-- system/start/api.js -->
<g id="node69" class="node">
<title>system/start/api.js</title>
<path fill="none" stroke="#c6c5fe" d="M461.33,-1214.27C461.33,-1214.27 351.67,-1214.27 351.67,-1214.27 347.83,-1214.27 344,-1210.44 344,-1206.61 344,-1206.61 344,-1198.94 344,-1198.94 344,-1195.11 347.83,-1191.27 351.67,-1191.27 351.67,-1191.27 461.33,-1191.27 461.33,-1191.27 465.17,-1191.27 469,-1195.11 469,-1198.94 469,-1198.94 469,-1206.61 469,-1206.61 469,-1210.44 465.17,-1214.27 461.33,-1214.27"/>
<text text-anchor="middle" x="406.5" y="-1199.07" font-family="Arial" font-size="14.00" fill="#c6c5fe">system/start/api.js</text>
</g>
<!-- system/start/api.js&#45;&gt;../core/codes/index.js -->
<g id="edge87" class="edge">
<title>system/start/api.js&#45;&gt;../core/codes/index.js</title>
<path fill="none" stroke="#757575" d="M469.16,-1204.83C487.67,-1202.2 506.39,-1195.74 519,-1181.77 582.67,-1111.26 491.45,-826.39 555,-755.77 568.98,-740.24 589.16,-732.28 609.7,-728.52"/>
<polygon fill="#757575" stroke="#757575" points="610.41,-731.96 619.78,-727.01 609.37,-725.03 610.41,-731.96"/>
</g>
<!-- system/start/api.js&#45;&gt;../core/system/session/index.js -->
<g id="edge89" class="edge">
<title>system/start/api.js&#45;&gt;../core/system/session/index.js</title>
<path fill="none" stroke="#757575" d="M442.75,-1214.36C517.64,-1236.86 696.54,-1279.29 828,-1219.77 850.09,-1209.77 846.3,-1195.35 864,-1178.77 887.39,-1156.88 916.79,-1134.92 937.45,-1120.28"/>
<polygon fill="#757575" stroke="#757575" points="939.55,-1123.08 945.73,-1114.47 935.54,-1117.35 939.55,-1123.08"/>
</g>
<!-- system/start/api.js&#45;&gt;../core/system/i18n/index.js -->
<g id="edge88" class="edge">
<title>system/start/api.js&#45;&gt;../core/system/i18n/index.js</title>
<path fill="none" stroke="#757575" d="M469.26,-1202.12C504.94,-1201.74 550.67,-1201.26 591.28,-1200.83"/>
<polygon fill="#757575" stroke="#757575" points="591.52,-1204.32 601.49,-1200.72 591.45,-1197.32 591.52,-1204.32"/>
</g>
<!-- system/stats/api.js -->
<g id="node70" class="node">
<title>system/stats/api.js</title>
<path fill="none" stroke="#c6c5fe" d="M1020.33,-1726.27C1020.33,-1726.27 907.67,-1726.27 907.67,-1726.27 903.83,-1726.27 900,-1722.44 900,-1718.61 900,-1718.61 900,-1710.94 900,-1710.94 900,-1707.11 903.83,-1703.27 907.67,-1703.27 907.67,-1703.27 1020.33,-1703.27 1020.33,-1703.27 1024.17,-1703.27 1028,-1707.11 1028,-1710.94 1028,-1710.94 1028,-1718.61 1028,-1718.61 1028,-1722.44 1024.17,-1726.27 1020.33,-1726.27"/>
<text text-anchor="middle" x="964" y="-1711.07" font-family="Arial" font-size="14.00" fill="#c6c5fe">system/stats/api.js</text>
</g>
<!-- system/stats/api.js&#45;&gt;../core/system/stats/index.js -->
<g id="edge90" class="edge">
<title>system/stats/api.js&#45;&gt;../core/system/stats/index.js</title>
<path fill="none" stroke="#757575" d="M1028.17,-1714.77C1062.7,-1714.77 1106.27,-1714.77 1145.4,-1714.77"/>
<polygon fill="#757575" stroke="#757575" points="1145.77,-1718.27 1155.77,-1714.77 1145.77,-1711.27 1145.77,-1718.27"/>
</g>
<!-- system/tests/api.js -->
<g id="node71" class="node">
<title>system/tests/api.js</title>
<path fill="none" stroke="#cfffac" d="M185.33,-2443.27C185.33,-2443.27 72.67,-2443.27 72.67,-2443.27 68.83,-2443.27 65,-2439.44 65,-2435.61 65,-2435.61 65,-2427.94 65,-2427.94 65,-2424.11 68.83,-2420.27 72.67,-2420.27 72.67,-2420.27 185.33,-2420.27 185.33,-2420.27 189.17,-2420.27 193,-2424.11 193,-2427.94 193,-2427.94 193,-2435.61 193,-2435.61 193,-2439.44 189.17,-2443.27 185.33,-2443.27"/>
<text text-anchor="middle" x="129" y="-2428.07" font-family="Arial" font-size="14.00" fill="#cfffac">system/tests/api.js</text>
</g>
<!-- system/users/actions.js -->
<g id="node72" class="node">
<title>system/users/actions.js</title>
<path fill="none" stroke="#c6c5fe" d="M477.33,-559.27C477.33,-559.27 335.67,-559.27 335.67,-559.27 331.83,-559.27 328,-555.44 328,-551.61 328,-551.61 328,-543.94 328,-543.94 328,-540.11 331.83,-536.27 335.67,-536.27 335.67,-536.27 477.33,-536.27 477.33,-536.27 481.17,-536.27 485,-540.11 485,-543.94 485,-543.94 485,-551.61 485,-551.61 485,-555.44 481.17,-559.27 477.33,-559.27"/>
<text text-anchor="middle" x="406.5" y="-544.07" font-family="Arial" font-size="14.00" fill="#c6c5fe">system/users/actions.js</text>
</g>
<!-- system/users/actions.js&#45;&gt;../core/persistence/db/index.js -->
<g id="edge91" class="edge">
<title>system/users/actions.js&#45;&gt;../core/persistence/db/index.js</title>
<path fill="none" stroke="#757575" d="M485.29,-557.89C496.78,-560.48 508.34,-563.72 519,-567.77 536.53,-574.43 536.95,-584.7 555,-589.77 677.1,-624.13 827.73,-600.72 907.44,-583.49"/>
<polygon fill="#757575" stroke="#757575" points="908.26,-586.89 917.27,-581.32 906.75,-580.06 908.26,-586.89"/>
</g>
<!-- system/users/actions.js&#45;&gt;../core/system/security/index.js -->
<g id="edge92" class="edge">
<title>system/users/actions.js&#45;&gt;../core/system/security/index.js</title>
<path fill="none" stroke="#757575" d="M485.07,-553.16C497.09,-556.34 508.86,-561.01 519,-567.77 543.61,-584.2 530.49,-607.2 555,-623.77 563.11,-629.26 572.09,-633.65 581.44,-637.17"/>
<polygon fill="#757575" stroke="#757575" points="580.31,-640.48 590.91,-640.4 582.57,-633.86 580.31,-640.48"/>
</g>
<!-- system/users/api.js -->
<g id="node73" class="node">
<title>system/users/api.js</title>
<path fill="none" stroke="#c6c5fe" d="M187.33,-824.27C187.33,-824.27 70.67,-824.27 70.67,-824.27 66.83,-824.27 63,-820.44 63,-816.61 63,-816.61 63,-808.94 63,-808.94 63,-805.11 66.83,-801.27 70.67,-801.27 70.67,-801.27 187.33,-801.27 187.33,-801.27 191.17,-801.27 195,-805.11 195,-808.94 195,-808.94 195,-816.61 195,-816.61 195,-820.44 191.17,-824.27 187.33,-824.27"/>
<text text-anchor="middle" x="129" y="-809.07" font-family="Arial" font-size="14.00" fill="#c6c5fe">system/users/api.js</text>
</g>
<!-- system/users/api.js&#45;&gt;../core/codes/index.js -->
<g id="edge93" class="edge">
<title>system/users/api.js&#45;&gt;../core/codes/index.js</title>
<path fill="none" stroke="#757575" d="M146.48,-824.49C204.31,-864.02 400.82,-985.08 519,-893.77 569.16,-855.02 508.73,-799.1 555,-755.77 569.81,-741.91 589.65,-734.37 609.57,-730.49"/>
<polygon fill="#757575" stroke="#757575" points="610.35,-733.91 619.65,-728.83 609.21,-727 610.35,-733.91"/>
</g>
<!-- system/users/api.js&#45;&gt;../core/persistence/db/index.js -->
<g id="edge94" class="edge">
<title>system/users/api.js&#45;&gt;../core/persistence/db/index.js</title>
<path fill="none" stroke="#757575" d="M144.38,-801.13C171.02,-778.77 228.05,-727.02 258,-670.77 289.01,-612.54 250.17,-576.08 294,-526.77 376.42,-434.05 432.97,-450.14 555,-427.77 674.35,-405.9 716.5,-379.93 828,-427.77 886.04,-452.68 930.9,-516.15 951.17,-549.15"/>
<polygon fill="#757575" stroke="#757575" points="948.31,-551.18 956.45,-557.96 954.32,-547.59 948.31,-551.18"/>
</g>
<!-- system/users/api.js&#45;&gt;../core/system/session/index.js -->
<g id="edge99" class="edge">
<title>system/users/api.js&#45;&gt;../core/system/session/index.js</title>
<path fill="none" stroke="#757575" d="M141.45,-824.37C187.78,-870.34 367.79,-1040.11 555,-1097.77 662.67,-1130.94 794.02,-1124.83 878.08,-1115.44"/>
<polygon fill="#757575" stroke="#757575" points="878.56,-1118.91 888.09,-1114.28 877.75,-1111.95 878.56,-1118.91"/>
</g>
<!-- system/users/api.js&#45;&gt;../core/system/i18n/countries.json -->
<g id="edge95" class="edge">
<title>system/users/api.js&#45;&gt;../core/system/i18n/countries.json</title>
<path fill="none" stroke="#757575" d="M174.4,-824.28C207.31,-832.64 253.32,-843.99 294,-852.77 306,-855.37 318.77,-857.94 331.22,-860.35"/>
<polygon fill="#757575" stroke="#757575" points="330.64,-863.81 341.12,-862.25 331.95,-856.93 330.64,-863.81"/>
</g>
<!-- system/users/api.js&#45;&gt;../core/system/i18n/languages.json -->
<g id="edge96" class="edge">
<title>system/users/api.js&#45;&gt;../core/system/i18n/languages.json</title>
<path fill="none" stroke="#757575" d="M195.29,-817.51C221.74,-819.43 253.17,-821.72 283.56,-823.92"/>
<polygon fill="#757575" stroke="#757575" points="283.59,-827.43 293.81,-824.67 284.09,-820.45 283.59,-827.43"/>
</g>
<!-- system/users/api.js&#45;&gt;../core/system/i18n/zones.json -->
<g id="edge97" class="edge">
<title>system/users/api.js&#45;&gt;../core/system/i18n/zones.json</title>
<path fill="none" stroke="#757575" d="M195.29,-807.8C225.63,-805.48 262.53,-802.67 296.89,-800.05"/>
<polygon fill="#757575" stroke="#757575" points="297.28,-803.53 306.98,-799.28 296.74,-796.55 297.28,-803.53"/>
</g>
<!-- system/users/api.js&#45;&gt;../core/system/security/index.js -->
<g id="edge98" class="edge">
<title>system/users/api.js&#45;&gt;../core/system/security/index.js</title>
<path fill="none" stroke="#757575" d="M148.39,-801.16C177.93,-783.04 238.27,-748.25 294,-729.77 390.34,-697.84 421.55,-719.13 519,-690.77 535.64,-685.93 538.4,-680.77 555,-675.77 571.2,-670.9 588.78,-666.74 605.74,-663.26"/>
<polygon fill="#757575" stroke="#757575" points="606.51,-666.68 615.64,-661.3 605.15,-659.81 606.51,-666.68"/>
</g>
<!-- system/users/api.js&#45;&gt;../core/system/websockets/index.js -->
<g id="edge100" class="edge">
<title>system/users/api.js&#45;&gt;../core/system/websockets/index.js</title>
<path fill="none" stroke="#757575" d="M129.88,-824.67C129.95,-886.03 138.88,-1168.88 294,-1299.77 371.34,-1365.04 488.56,-1376.2 575.51,-1373.65"/>
<polygon fill="#757575" stroke="#757575" points="575.82,-1377.14 585.69,-1373.28 575.57,-1370.14 575.82,-1377.14"/>
</g>
<!-- system/users/api.js&#45;&gt;system/config.js -->
<g id="edge101" class="edge">
<title>system/users/api.js&#45;&gt;system/config.js</title>
<path fill="none" stroke="#757575" d="M145.66,-801.2C173.88,-779.33 232.65,-728.88 258,-670.77 329.9,-505.95 214.63,-429.13 294,-267.77 363.69,-126.1 407.96,-84.28 555,-26.77 668,17.42 709.39,-1.22 828,-26.77 867.36,-35.25 909.06,-56.17 935.53,-71.15"/>
<polygon fill="#757575" stroke="#757575" points="933.81,-74.2 944.22,-76.17 937.31,-68.14 933.81,-74.2"/>
</g>
<!-- system/users/api.js&#45;&gt;system/users/actions.js -->
<g id="edge102" class="edge">
<title>system/users/api.js&#45;&gt;system/users/actions.js</title>
<path fill="none" stroke="#757575" d="M143.51,-801.22C169.18,-778.61 225.35,-725.88 258,-670.77 282.72,-629.06 257.1,-599.24 294,-567.77 301.09,-561.73 309.37,-557.24 318.16,-553.93"/>
<polygon fill="#757575" stroke="#757575" points="319.43,-557.2 327.87,-550.79 317.28,-550.54 319.43,-557.2"/>
</g>
<!-- viemed/public/api/edf.js -->
<g id="node74" class="node">
<title>viemed/public/api/edf.js</title>
<path fill="none" stroke="#c6c5fe" d="M762.83,-1291.27C762.83,-1291.27 620.17,-1291.27 620.17,-1291.27 616.33,-1291.27 612.5,-1287.44 612.5,-1283.61 612.5,-1283.61 612.5,-1275.94 612.5,-1275.94 612.5,-1272.11 616.33,-1268.27 620.17,-1268.27 620.17,-1268.27 762.83,-1268.27 762.83,-1268.27 766.67,-1268.27 770.5,-1272.11 770.5,-1275.94 770.5,-1275.94 770.5,-1283.61 770.5,-1283.61 770.5,-1287.44 766.67,-1291.27 762.83,-1291.27"/>
<text text-anchor="middle" x="691.5" y="-1276.07" font-family="Arial" font-size="14.00" fill="#c6c5fe">viemed/public/api/edf.js</text>
</g>
<!-- viemed/public/api/edf.js&#45;&gt;../core/cloud/aws/index.js -->
<g id="edge103" class="edge">
<title>viemed/public/api/edf.js&#45;&gt;../core/cloud/aws/index.js</title>
<path fill="none" stroke="#757575" d="M770.52,-1286.89C789.6,-1289.82 809.76,-1293.96 828,-1299.77 985.69,-1350.05 1156.47,-1454.54 1220.4,-1495.64"/>
<polygon fill="#757575" stroke="#757575" points="1218.75,-1498.74 1229.05,-1501.23 1222.55,-1492.86 1218.75,-1498.74"/>
</g>
<!-- viemed/public/api/edf.js&#45;&gt;../core/persistence/db/index.js -->
<g id="edge104" class="edge">
<title>viemed/public/api/edf.js&#45;&gt;../core/persistence/db/index.js</title>
<path fill="none" stroke="#757575" d="M747.1,-1268.27C775.28,-1259.57 807.88,-1244.69 828,-1219.77 838.3,-1207.01 937.06,-702.81 958.79,-591.41"/>
<polygon fill="#757575" stroke="#757575" points="962.27,-591.84 960.75,-581.36 955.4,-590.5 962.27,-591.84"/>
</g>
<!-- viemed/public/api/edfparser.js -->
<g id="node75" class="node">
<title>viemed/public/api/edfparser.js</title>
<path fill="none" stroke="#cfffac" d="M218.83,-2484.27C218.83,-2484.27 39.17,-2484.27 39.17,-2484.27 35.33,-2484.27 31.5,-2480.44 31.5,-2476.61 31.5,-2476.61 31.5,-2468.94 31.5,-2468.94 31.5,-2465.11 35.33,-2461.27 39.17,-2461.27 39.17,-2461.27 218.83,-2461.27 218.83,-2461.27 222.67,-2461.27 226.5,-2465.11 226.5,-2468.94 226.5,-2468.94 226.5,-2476.61 226.5,-2476.61 226.5,-2480.44 222.67,-2484.27 218.83,-2484.27"/>
<text text-anchor="middle" x="129" y="-2469.07" font-family="Arial" font-size="14.00" fill="#cfffac">viemed/public/api/edfparser.js</text>
</g>
<!-- viemed/public/api/index.js -->
<g id="node76" class="node">
<title>viemed/public/api/index.js</title>
<path fill="none" stroke="#c6c5fe" d="M484.33,-1291.27C484.33,-1291.27 328.67,-1291.27 328.67,-1291.27 324.83,-1291.27 321,-1287.44 321,-1283.61 321,-1283.61 321,-1275.94 321,-1275.94 321,-1272.11 324.83,-1268.27 328.67,-1268.27 328.67,-1268.27 484.33,-1268.27 484.33,-1268.27 488.17,-1268.27 492,-1272.11 492,-1275.94 492,-1275.94 492,-1283.61 492,-1283.61 492,-1287.44 488.17,-1291.27 484.33,-1291.27"/>
<text text-anchor="middle" x="406.5" y="-1276.07" font-family="Arial" font-size="14.00" fill="#c6c5fe">viemed/public/api/index.js</text>
</g>
<!-- viemed/public/api/index.js&#45;&gt;viemed/public/api/edf.js -->
<g id="edge105" class="edge">
<title>viemed/public/api/index.js&#45;&gt;viemed/public/api/edf.js</title>
<path fill="none" stroke="#757575" d="M492.03,-1279.77C526.71,-1279.77 566.89,-1279.77 601.98,-1279.77"/>
<polygon fill="#757575" stroke="#757575" points="602.21,-1283.27 612.21,-1279.77 602.21,-1276.27 602.21,-1283.27"/>
</g>
<!-- viemed/public/db/index.js -->
<g id="node77" class="node">
<title>viemed/public/db/index.js</title>
<path fill="none" stroke="#cfffac" d="M205.33,-2525.27C205.33,-2525.27 52.67,-2525.27 52.67,-2525.27 48.83,-2525.27 45,-2521.44 45,-2517.61 45,-2517.61 45,-2509.94 45,-2509.94 45,-2506.11 48.83,-2502.27 52.67,-2502.27 52.67,-2502.27 205.33,-2502.27 205.33,-2502.27 209.17,-2502.27 213,-2506.11 213,-2509.94 213,-2509.94 213,-2517.61 213,-2517.61 213,-2521.44 209.17,-2525.27 205.33,-2525.27"/>
<text text-anchor="middle" x="129" y="-2510.07" font-family="Arial" font-size="14.00" fill="#cfffac">viemed/public/db/index.js</text>
</g>
</g>
</svg>
