<?xml version="1.0" encoding="UTF-8" standalone="no"?>
<!DOCTYPE svg PUBLIC "-//W3C//DTD SVG 1.1//EN"
 "http://www.w3.org/Graphics/SVG/1.1/DTD/svg11.dtd">
<!-- Generated by graphviz version 2.43.0 (0)
 -->
<!-- Title: G Pages: 1 -->
<svg width="1569pt" height="477pt"
 viewBox="0.00 0.00 1569.20 476.99" xmlns="http://www.w3.org/2000/svg" xmlns:xlink="http://www.w3.org/1999/xlink">
<g id="graph0" class="graph" transform="scale(1 1) rotate(0) translate(21.6 455.39)">
<title>G</title>
<polygon fill="#111111" stroke="transparent" points="-21.6,21.6 -21.6,-455.39 1547.6,-455.39 1547.6,21.6 -21.6,21.6"/>
<!-- ../core/codes/index.js -->
<g id="node1" class="node">
<title>../core/codes/index.js</title>
<path fill="none" stroke="#cfffac" d="M375.33,-315.79C375.33,-315.79 247.67,-315.79 247.67,-315.79 243.83,-315.79 240,-311.96 240,-308.13 240,-308.13 240,-300.46 240,-300.46 240,-296.63 243.83,-292.79 247.67,-292.79 247.67,-292.79 375.33,-292.79 375.33,-292.79 379.17,-292.79 383,-296.63 383,-300.46 383,-300.46 383,-308.13 383,-308.13 383,-311.96 379.17,-315.79 375.33,-315.79"/>
<text text-anchor="middle" x="311.5" y="-300.59" font-family="Arial" font-size="14.00" fill="#cfffac">../core/codes/index.js</text>
</g>
<!-- ../core/persistence/cache/index.js -->
<g id="node2" class="node">
<title>../core/persistence/cache/index.js</title>
<path fill="none" stroke="#c6c5fe" d="M1223.33,-255.79C1223.33,-255.79 1022.67,-255.79 1022.67,-255.79 1018.83,-255.79 1015,-251.96 1015,-248.13 1015,-248.13 1015,-240.46 1015,-240.46 1015,-236.63 1018.83,-232.79 1022.67,-232.79 1022.67,-232.79 1223.33,-232.79 1223.33,-232.79 1227.17,-232.79 1231,-236.63 1231,-240.46 1231,-240.46 1231,-248.13 1231,-248.13 1231,-251.96 1227.17,-255.79 1223.33,-255.79"/>
<text text-anchor="middle" x="1123" y="-240.59" font-family="Arial" font-size="14.00" fill="#c6c5fe">../core/persistence/cache/index.js</text>
</g>
<!-- ../core/persistence/cache/scripts/index.js -->
<g id="node3" class="node">
<title>../core/persistence/cache/scripts/index.js</title>
<path fill="none" stroke="#cfffac" d="M1518.33,-255.79C1518.33,-255.79 1274.67,-255.79 1274.67,-255.79 1270.83,-255.79 1267,-251.96 1267,-248.13 1267,-248.13 1267,-240.46 1267,-240.46 1267,-236.63 1270.83,-232.79 1274.67,-232.79 1274.67,-232.79 1518.33,-232.79 1518.33,-232.79 1522.17,-232.79 1526,-236.63 1526,-240.46 1526,-240.46 1526,-248.13 1526,-248.13 1526,-251.96 1522.17,-255.79 1518.33,-255.79"/>
<text text-anchor="middle" x="1396.5" y="-240.59" font-family="Arial" font-size="14.00" fill="#cfffac">../core/persistence/cache/scripts/index.js</text>
</g>
<!-- ../core/persistence/cache/index.js&#45;&gt;../core/persistence/cache/scripts/index.js -->
<g id="edge1" class="edge">
<title>../core/persistence/cache/index.js&#45;&gt;../core/persistence/cache/scripts/index.js</title>
<path fill="none" stroke="#757575" d="M1231.3,-244.29C1239.72,-244.29 1248.29,-244.29 1256.87,-244.29"/>
<polygon fill="#757575" stroke="#757575" points="1256.95,-247.8 1266.95,-244.29 1256.95,-240.8 1256.95,-247.8"/>
</g>
<!-- ../core/persistence/db/abstraction/postgresql.js -->
<g id="node4" class="node">
<title>../core/persistence/db/abstraction/postgresql.js</title>
<path fill="none" stroke="#c6c5fe" d="M971.33,-433.79C971.33,-433.79 691.67,-433.79 691.67,-433.79 687.83,-433.79 684,-429.96 684,-426.13 684,-426.13 684,-418.46 684,-418.46 684,-414.63 687.83,-410.79 691.67,-410.79 691.67,-410.79 971.33,-410.79 971.33,-410.79 975.17,-410.79 979,-414.63 979,-418.46 979,-418.46 979,-426.13 979,-426.13 979,-429.96 975.17,-433.79 971.33,-433.79"/>
<text text-anchor="middle" x="831.5" y="-418.59" font-family="Arial" font-size="14.00" fill="#c6c5fe">../core/persistence/db/abstraction/postgresql.js</text>
</g>
<!-- ../core/persistence/db/utils.js -->
<g id="node5" class="node">
<title>../core/persistence/db/utils.js</title>
<path fill="none" stroke="#cfffac" d="M1208.83,-413.79C1208.83,-413.79 1037.17,-413.79 1037.17,-413.79 1033.33,-413.79 1029.5,-409.96 1029.5,-406.13 1029.5,-406.13 1029.5,-398.46 1029.5,-398.46 1029.5,-394.63 1033.33,-390.79 1037.17,-390.79 1037.17,-390.79 1208.83,-390.79 1208.83,-390.79 1212.67,-390.79 1216.5,-394.63 1216.5,-398.46 1216.5,-398.46 1216.5,-406.13 1216.5,-406.13 1216.5,-409.96 1212.67,-413.79 1208.83,-413.79"/>
<text text-anchor="middle" x="1123" y="-398.59" font-family="Arial" font-size="14.00" fill="#cfffac">../core/persistence/db/utils.js</text>
</g>
<!-- ../core/persistence/db/abstraction/postgresql.js&#45;&gt;../core/persistence/db/utils.js -->
<g id="edge2" class="edge">
<title>../core/persistence/db/abstraction/postgresql.js&#45;&gt;../core/persistence/db/utils.js</title>
<path fill="none" stroke="#757575" d="M979.37,-412.15C992.73,-411.23 1006.07,-410.3 1018.93,-409.42"/>
<polygon fill="#757575" stroke="#757575" points="1019.4,-412.89 1029.13,-408.71 1018.92,-405.91 1019.4,-412.89"/>
</g>
<!-- ../core/persistence/db/index.js -->
<g id="node6" class="node">
<title>../core/persistence/db/index.js</title>
<path fill="none" stroke="#c6c5fe" d="M637.83,-394.79C637.83,-394.79 458.17,-394.79 458.17,-394.79 454.33,-394.79 450.5,-390.96 450.5,-387.13 450.5,-387.13 450.5,-379.46 450.5,-379.46 450.5,-375.63 454.33,-371.79 458.17,-371.79 458.17,-371.79 637.83,-371.79 637.83,-371.79 641.67,-371.79 645.5,-375.63 645.5,-379.46 645.5,-379.46 645.5,-387.13 645.5,-387.13 645.5,-390.96 641.67,-394.79 637.83,-394.79"/>
<text text-anchor="middle" x="548" y="-379.59" font-family="Arial" font-size="14.00" fill="#c6c5fe">../core/persistence/db/index.js</text>
</g>
<!-- ../core/persistence/db/index.js&#45;&gt;../core/persistence/db/abstraction/postgresql.js -->
<g id="edge3" class="edge">
<title>../core/persistence/db/index.js&#45;&gt;../core/persistence/db/abstraction/postgresql.js</title>
<path fill="none" stroke="#757575" d="M632.32,-394.84C665.37,-399.42 703.52,-404.7 737.47,-409.41"/>
<polygon fill="#757575" stroke="#757575" points="737.01,-412.88 747.4,-410.78 737.97,-405.94 737.01,-412.88"/>
</g>
<!-- ../core/persistence/db/index.js&#45;&gt;../core/persistence/db/utils.js -->
<g id="edge4" class="edge">
<title>../core/persistence/db/index.js&#45;&gt;../core/persistence/db/utils.js</title>
<path fill="none" stroke="#757575" d="M645.55,-386.5C749.22,-389.93 913.26,-395.37 1019.26,-398.89"/>
<polygon fill="#757575" stroke="#757575" points="1019.22,-402.39 1029.33,-399.22 1019.45,-395.39 1019.22,-402.39"/>
</g>
<!-- ../core/system/stats/index.js -->
<g id="node7" class="node">
<title>../core/system/stats/index.js</title>
<path fill="none" stroke="#c6c5fe" d="M915.33,-115.79C915.33,-115.79 747.67,-115.79 747.67,-115.79 743.83,-115.79 740,-111.96 740,-108.13 740,-108.13 740,-100.46 740,-100.46 740,-96.63 743.83,-92.79 747.67,-92.79 747.67,-92.79 915.33,-92.79 915.33,-92.79 919.17,-92.79 923,-96.63 923,-100.46 923,-100.46 923,-108.13 923,-108.13 923,-111.96 919.17,-115.79 915.33,-115.79"/>
<text text-anchor="middle" x="831.5" y="-100.59" font-family="Arial" font-size="14.00" fill="#c6c5fe">../core/system/stats/index.js</text>
</g>
<!-- ../core/persistence/db/index.js&#45;&gt;../core/system/stats/index.js -->
<g id="edge5" class="edge">
<title>../core/persistence/db/index.js&#45;&gt;../core/system/stats/index.js</title>
<path fill="none" stroke="#757575" d="M558.55,-371.55C577.24,-348.24 619.28,-294.08 648,-244.29 667.28,-210.87 656.27,-192.12 684,-165.29 707.11,-142.93 739.61,-128.28 768.13,-118.96"/>
<polygon fill="#757575" stroke="#757575" points="769.52,-122.19 778.03,-115.88 767.44,-115.51 769.52,-122.19"/>
</g>
<!-- ../core/system/stats/index.js&#45;&gt;../core/persistence/cache/index.js -->
<g id="edge12" class="edge">
<title>../core/system/stats/index.js&#45;&gt;../core/persistence/cache/index.js</title>
<path fill="none" stroke="#757575" d="M862.95,-115.84C892.88,-127.45 939.67,-146.32 979,-165.29 1019.8,-184.98 1065.35,-210.85 1093.84,-227.53"/>
<polygon fill="#757575" stroke="#757575" points="1092.07,-230.55 1102.47,-232.6 1095.62,-224.52 1092.07,-230.55"/>
</g>
<!-- ../core/system/errors/notify.js -->
<g id="node9" class="node">
<title>../core/system/errors/notify.js</title>
<path fill="none" stroke="#c6c5fe" d="M1209.83,-95.79C1209.83,-95.79 1036.17,-95.79 1036.17,-95.79 1032.33,-95.79 1028.5,-91.96 1028.5,-88.13 1028.5,-88.13 1028.5,-80.46 1028.5,-80.46 1028.5,-76.63 1032.33,-72.79 1036.17,-72.79 1036.17,-72.79 1209.83,-72.79 1209.83,-72.79 1213.67,-72.79 1217.5,-76.63 1217.5,-80.46 1217.5,-80.46 1217.5,-88.13 1217.5,-88.13 1217.5,-91.96 1213.67,-95.79 1209.83,-95.79"/>
<text text-anchor="middle" x="1123" y="-80.59" font-family="Arial" font-size="14.00" fill="#c6c5fe">../core/system/errors/notify.js</text>
</g>
<!-- ../core/system/stats/index.js&#45;&gt;../core/system/errors/notify.js -->
<g id="edge13" class="edge">
<title>../core/system/stats/index.js&#45;&gt;../core/system/errors/notify.js</title>
<path fill="none" stroke="#757575" d="M923.31,-98.02C953.32,-95.95 986.96,-93.62 1017.89,-91.49"/>
<polygon fill="#757575" stroke="#757575" points="1018.54,-94.95 1028.27,-90.77 1018.05,-87.97 1018.54,-94.95"/>
</g>
<!-- ../core/services/slack/index.js -->
<g id="node8" class="node">
<title>../core/services/slack/index.js</title>
<path fill="none" stroke="#cfffac" d="M1484.33,-95.79C1484.33,-95.79 1308.67,-95.79 1308.67,-95.79 1304.83,-95.79 1301,-91.96 1301,-88.13 1301,-88.13 1301,-80.46 1301,-80.46 1301,-76.63 1304.83,-72.79 1308.67,-72.79 1308.67,-72.79 1484.33,-72.79 1484.33,-72.79 1488.17,-72.79 1492,-76.63 1492,-80.46 1492,-80.46 1492,-88.13 1492,-88.13 1492,-91.96 1488.17,-95.79 1484.33,-95.79"/>
<text text-anchor="middle" x="1396.5" y="-80.59" font-family="Arial" font-size="14.00" fill="#cfffac">../core/services/slack/index.js</text>
</g>
<!-- ../core/system/errors/notify.js&#45;&gt;../core/services/slack/index.js -->
<g id="edge6" class="edge">
<title>../core/system/errors/notify.js&#45;&gt;../core/services/slack/index.js</title>
<path fill="none" stroke="#757575" d="M1217.82,-84.29C1241.29,-84.29 1266.61,-84.29 1290.58,-84.29"/>
<polygon fill="#757575" stroke="#757575" points="1290.76,-87.8 1300.76,-84.29 1290.76,-80.8 1290.76,-87.8"/>
</g>
<!-- ../core/system/i18n/time.js -->
<g id="node10" class="node">
<title>../core/system/i18n/time.js</title>
<path fill="none" stroke="#cfffac" d="M910.83,-196.79C910.83,-196.79 752.17,-196.79 752.17,-196.79 748.33,-196.79 744.5,-192.96 744.5,-189.13 744.5,-189.13 744.5,-181.46 744.5,-181.46 744.5,-177.63 748.33,-173.79 752.17,-173.79 752.17,-173.79 910.83,-173.79 910.83,-173.79 914.67,-173.79 918.5,-177.63 918.5,-181.46 918.5,-181.46 918.5,-189.13 918.5,-189.13 918.5,-192.96 914.67,-196.79 910.83,-196.79"/>
<text text-anchor="middle" x="831.5" y="-181.59" font-family="Arial" font-size="14.00" fill="#cfffac">../core/system/i18n/time.js</text>
</g>
<!-- ../core/system/security/index.js -->
<g id="node11" class="node">
<title>../core/system/security/index.js</title>
<path fill="none" stroke="#c6c5fe" d="M404.33,-274.79C404.33,-274.79 218.67,-274.79 218.67,-274.79 214.83,-274.79 211,-270.96 211,-267.13 211,-267.13 211,-259.46 211,-259.46 211,-255.63 214.83,-251.79 218.67,-251.79 218.67,-251.79 404.33,-251.79 404.33,-251.79 408.17,-251.79 412,-255.63 412,-259.46 412,-259.46 412,-267.13 412,-267.13 412,-270.96 408.17,-274.79 404.33,-274.79"/>
<text text-anchor="middle" x="311.5" y="-259.59" font-family="Arial" font-size="14.00" fill="#c6c5fe">../core/system/security/index.js</text>
</g>
<!-- ../core/system/security/index.js&#45;&gt;../core/persistence/cache/index.js -->
<g id="edge7" class="edge">
<title>../core/system/security/index.js&#45;&gt;../core/persistence/cache/index.js</title>
<path fill="none" stroke="#757575" d="M412.17,-260.96C562.07,-257.44 844.96,-250.8 1004.63,-247.05"/>
<polygon fill="#757575" stroke="#757575" points="1005.05,-250.54 1014.97,-246.81 1004.89,-243.54 1005.05,-250.54"/>
</g>
<!-- ../core/system/security/index.js&#45;&gt;../core/persistence/db/index.js -->
<g id="edge8" class="edge">
<title>../core/system/security/index.js&#45;&gt;../core/persistence/db/index.js</title>
<path fill="none" stroke="#757575" d="M385.12,-274.84C394.36,-277.4 403.54,-280.51 412,-284.29 457.53,-304.65 502.68,-342.2 527.5,-364.75"/>
<polygon fill="#757575" stroke="#757575" points="525.39,-367.56 535.11,-371.77 530.14,-362.42 525.39,-367.56"/>
</g>
<!-- ../core/system/session/index.js -->
<g id="node12" class="node">
<title>../core/system/session/index.js</title>
<path fill="none" stroke="#c6c5fe" d="M640.33,-234.79C640.33,-234.79 455.67,-234.79 455.67,-234.79 451.83,-234.79 448,-230.96 448,-227.13 448,-227.13 448,-219.46 448,-219.46 448,-215.63 451.83,-211.79 455.67,-211.79 455.67,-211.79 640.33,-211.79 640.33,-211.79 644.17,-211.79 648,-215.63 648,-219.46 648,-219.46 648,-227.13 648,-227.13 648,-230.96 644.17,-234.79 640.33,-234.79"/>
<text text-anchor="middle" x="548" y="-219.59" font-family="Arial" font-size="14.00" fill="#c6c5fe">../core/system/session/index.js</text>
</g>
<!-- ../core/system/security/index.js&#45;&gt;../core/system/session/index.js -->
<g id="edge9" class="edge">
<title>../core/system/security/index.js&#45;&gt;../core/system/session/index.js</title>
<path fill="none" stroke="#757575" d="M380.01,-251.78C407.97,-247.01 440.56,-241.45 469.49,-236.52"/>
<polygon fill="#757575" stroke="#757575" points="470.29,-239.93 479.56,-234.8 469.11,-233.03 470.29,-239.93"/>
</g>
<!-- ../core/system/session/index.js&#45;&gt;../core/persistence/cache/index.js -->
<g id="edge10" class="edge">
<title>../core/system/session/index.js&#45;&gt;../core/persistence/cache/index.js</title>
<path fill="none" stroke="#757575" d="M648.15,-226.93C747.3,-230.56 899.74,-236.15 1004.8,-240"/>
<polygon fill="#757575" stroke="#757575" points="1004.7,-243.5 1014.82,-240.37 1004.96,-236.5 1004.7,-243.5"/>
</g>
<!-- ../core/system/session/index.js&#45;&gt;../core/system/i18n/time.js -->
<g id="edge11" class="edge">
<title>../core/system/session/index.js&#45;&gt;../core/system/i18n/time.js</title>
<path fill="none" stroke="#757575" d="M634.22,-211.79C666.05,-207.49 702.38,-202.59 735.06,-198.18"/>
<polygon fill="#757575" stroke="#757575" points="735.64,-201.63 745.08,-196.83 734.7,-194.7 735.64,-201.63"/>
</g>
<!-- execute.js -->
<g id="node13" class="node">
<title>execute.js</title>
<path fill="none" stroke="#c6c5fe" d="M167.33,-214.79C167.33,-214.79 105.67,-214.79 105.67,-214.79 101.83,-214.79 98,-210.96 98,-207.13 98,-207.13 98,-199.46 98,-199.46 98,-195.63 101.83,-191.79 105.67,-191.79 105.67,-191.79 167.33,-191.79 167.33,-191.79 171.17,-191.79 175,-195.63 175,-199.46 175,-199.46 175,-207.13 175,-207.13 175,-210.96 171.17,-214.79 167.33,-214.79"/>
<text text-anchor="middle" x="136.5" y="-199.59" font-family="Arial" font-size="14.00" fill="#c6c5fe">execute.js</text>
</g>
<!-- execute.js&#45;&gt;../core/codes/index.js -->
<g id="edge14" class="edge">
<title>execute.js&#45;&gt;../core/codes/index.js</title>
<path fill="none" stroke="#757575" d="M144.46,-214.82C155.94,-232.75 180.61,-267.05 211,-284.29 216.97,-287.68 223.43,-290.5 230.09,-292.85"/>
<polygon fill="#757575" stroke="#757575" points="229.37,-296.29 239.96,-295.96 231.47,-289.62 229.37,-296.29"/>
</g>
<!-- execute.js&#45;&gt;../core/system/stats/index.js -->
<g id="edge18" class="edge">
<title>execute.js&#45;&gt;../core/system/stats/index.js</title>
<path fill="none" stroke="#757575" d="M143.78,-191.75C154.65,-173.13 178.92,-137.07 211,-122.29 300.39,-81.14 578.33,-89.61 729.73,-97.8"/>
<polygon fill="#757575" stroke="#757575" points="729.78,-101.3 739.96,-98.36 730.17,-94.32 729.78,-101.3"/>
</g>
<!-- execute.js&#45;&gt;../core/system/errors/notify.js -->
<g id="edge15" class="edge">
<title>execute.js&#45;&gt;../core/system/errors/notify.js</title>
<path fill="none" stroke="#757575" d="M140.79,-191.76C148.43,-167.38 169.95,-111 211,-88.29 503.61,73.57 934.27,-29.2 1075.37,-69.89"/>
<polygon fill="#757575" stroke="#757575" points="1074.45,-73.27 1085.03,-72.71 1076.41,-66.55 1074.45,-73.27"/>
</g>
<!-- execute.js&#45;&gt;../core/system/security/index.js -->
<g id="edge16" class="edge">
<title>execute.js&#45;&gt;../core/system/security/index.js</title>
<path fill="none" stroke="#757575" d="M159.91,-214.93C174.25,-222.05 193.4,-230.98 211,-237.29 223.32,-241.71 236.74,-245.74 249.63,-249.22"/>
<polygon fill="#757575" stroke="#757575" points="248.79,-252.62 259.35,-251.78 250.57,-245.85 248.79,-252.62"/>
</g>
<!-- execute.js&#45;&gt;../core/system/session/index.js -->
<g id="edge17" class="edge">
<title>execute.js&#45;&gt;../core/system/session/index.js</title>
<path fill="none" stroke="#757575" d="M175.29,-205.14C234.33,-208.02 350.69,-213.71 437.57,-217.95"/>
<polygon fill="#757575" stroke="#757575" points="437.58,-221.46 447.74,-218.45 437.92,-214.46 437.58,-221.46"/>
</g>
<!-- schemas/input.json -->
<g id="node14" class="node">
<title>schemas/input.json</title>
<path fill="none" stroke="#cfffac" d="M370.33,-153.79C370.33,-153.79 252.67,-153.79 252.67,-153.79 248.83,-153.79 245,-149.96 245,-146.13 245,-146.13 245,-138.46 245,-138.46 245,-134.63 248.83,-130.79 252.67,-130.79 252.67,-130.79 370.33,-130.79 370.33,-130.79 374.17,-130.79 378,-134.63 378,-138.46 378,-138.46 378,-146.13 378,-146.13 378,-149.96 374.17,-153.79 370.33,-153.79"/>
<text text-anchor="middle" x="311.5" y="-138.59" font-family="Arial" font-size="14.00" fill="#cfffac">schemas/input.json</text>
</g>
<!-- execute.js&#45;&gt;schemas/input.json -->
<g id="edge19" class="edge">
<title>execute.js&#45;&gt;schemas/input.json</title>
<path fill="none" stroke="#757575" d="M155.23,-191.73C169.7,-182.77 190.96,-170.68 211,-163.29 218.74,-160.44 226.97,-157.93 235.25,-155.73"/>
<polygon fill="#757575" stroke="#757575" points="236.12,-159.12 244.97,-153.29 234.42,-152.33 236.12,-159.12"/>
</g>
<!-- schemas/output.json -->
<g id="node15" class="node">
<title>schemas/output.json</title>
<path fill="none" stroke="#cfffac" d="M374.33,-194.79C374.33,-194.79 248.67,-194.79 248.67,-194.79 244.83,-194.79 241,-190.96 241,-187.13 241,-187.13 241,-179.46 241,-179.46 241,-175.63 244.83,-171.79 248.67,-171.79 248.67,-171.79 374.33,-171.79 374.33,-171.79 378.17,-171.79 382,-175.63 382,-179.46 382,-179.46 382,-187.13 382,-187.13 382,-190.96 378.17,-194.79 374.33,-194.79"/>
<text text-anchor="middle" x="311.5" y="-179.59" font-family="Arial" font-size="14.00" fill="#cfffac">schemas/output.json</text>
</g>
<!-- execute.js&#45;&gt;schemas/output.json -->
<g id="edge20" class="edge">
<title>execute.js&#45;&gt;schemas/output.json</title>
<path fill="none" stroke="#757575" d="M175.04,-198.96C191.46,-197.06 211.38,-194.75 230.84,-192.5"/>
<polygon fill="#757575" stroke="#757575" points="231.42,-195.96 240.96,-191.33 230.62,-189.01 231.42,-195.96"/>
</g>
<!-- index.js -->
<g id="node16" class="node">
<title>index.js</title>
<path fill="none" stroke="#c6c5fe" d="M54.33,-295.79C54.33,-295.79 7.67,-295.79 7.67,-295.79 3.83,-295.79 0,-291.96 0,-288.13 0,-288.13 0,-280.46 0,-280.46 0,-276.63 3.83,-272.79 7.67,-272.79 7.67,-272.79 54.33,-272.79 54.33,-272.79 58.17,-272.79 62,-276.63 62,-280.46 62,-280.46 62,-288.13 62,-288.13 62,-291.96 58.17,-295.79 54.33,-295.79"/>
<text text-anchor="middle" x="31" y="-280.59" font-family="Arial" font-size="14.00" fill="#c6c5fe">index.js</text>
</g>
<!-- index.js&#45;&gt;../core/codes/index.js -->
<g id="edge21" class="edge">
<title>index.js&#45;&gt;../core/codes/index.js</title>
<path fill="none" stroke="#757575" d="M62.07,-286.45C101.86,-289.31 173.52,-294.46 229.69,-298.49"/>
<polygon fill="#757575" stroke="#757575" points="229.76,-302.01 239.98,-299.23 230.26,-295.02 229.76,-302.01"/>
</g>
<!-- index.js&#45;&gt;../core/persistence/cache/index.js -->
<g id="edge22" class="edge">
<title>index.js&#45;&gt;../core/persistence/cache/index.js</title>
<path fill="none" stroke="#757575" d="M62.32,-294.87C73.45,-298.51 86.21,-302.39 98,-305.29 147.52,-317.5 160.19,-320.83 211,-325.29 528.75,-353.2 908.78,-287.43 1057.69,-257.82"/>
<polygon fill="#757575" stroke="#757575" points="1058.46,-261.24 1067.58,-255.84 1057.09,-254.37 1058.46,-261.24"/>
</g>
<!-- index.js&#45;&gt;../core/persistence/db/index.js -->
<g id="edge23" class="edge">
<title>index.js&#45;&gt;../core/persistence/db/index.js</title>
<path fill="none" stroke="#757575" d="M38.28,-295.86C48.32,-313.03 69.78,-344.69 98,-358.29 217.82,-416.03 377.01,-408 470.11,-396.16"/>
<polygon fill="#757575" stroke="#757575" points="470.84,-399.59 480.29,-394.81 469.92,-392.65 470.84,-399.59"/>
</g>
<!-- index.js&#45;&gt;../core/system/stats/index.js -->
<g id="edge25" class="edge">
<title>index.js&#45;&gt;../core/system/stats/index.js</title>
<path fill="none" stroke="#757575" d="M37.53,-272.7C55.86,-235.94 118.71,-122.38 211,-88.29 409.68,-14.93 669.12,-63.85 778.39,-90.38"/>
<polygon fill="#757575" stroke="#757575" points="777.63,-93.8 788.18,-92.79 779.31,-87 777.63,-93.8"/>
</g>
<!-- index.js&#45;&gt;../core/system/security/index.js -->
<g id="edge24" class="edge">
<title>index.js&#45;&gt;../core/system/security/index.js</title>
<path fill="none" stroke="#757575" d="M62.07,-282.03C95.23,-279.53 150.53,-275.36 200.54,-271.59"/>
<polygon fill="#757575" stroke="#757575" points="201.09,-275.06 210.79,-270.81 200.56,-268.08 201.09,-275.06"/>
</g>
<!-- index.js&#45;&gt;execute.js -->
<g id="edge26" class="edge">
<title>index.js&#45;&gt;execute.js</title>
<path fill="none" stroke="#757575" d="M46.83,-272.69C64.04,-259.22 92.64,-236.84 112.69,-221.15"/>
<polygon fill="#757575" stroke="#757575" points="114.98,-223.8 120.7,-214.88 110.67,-218.29 114.98,-223.8"/>
</g>
</g>
</svg>
